<?xml version="1.0" encoding="UTF-8"?>
<svg version="1.1" xmlns="http://www.w3.org/2000/svg" width="328" height="96">
<path d="M0 0 C0 0.99 0 1.98 0 3 C1.32 3.33 2.64 3.66 4 4 C4.495 7.465 4.495 7.465 5 11 C8.3 10.67 11.6 10.34 15 10 C15.2475 10.928125 15.495 11.85625 15.75 12.8125 C16.69207634 16.07451137 16.69207634 16.07451137 19.125 17.5 C19.74375 17.995 20.3625 18.49 21 19 C21.66023894 26.04022544 18.57672508 31.72464491 15.875 38.0625 C15.400625 39.23361328 14.92625 40.40472656 14.4375 41.61132812 C9.16113955 54.11059821 2.67970419 56.9309873 -9.4375 62.125 C-10.63955078 62.64964844 -11.84160156 63.17429687 -13.08007812 63.71484375 C-15.38498368 64.71918759 -17.69264157 65.71724617 -20.00341797 66.70800781 C-21.76464689 67.46737097 -23.52126877 68.23788995 -25.26611328 69.03417969 C-28.53066047 70.51893509 -30.30073611 71 -34 71 C-35.91141745 65.95905519 -36.65837007 61.110595 -37.2890625 55.796875 C-37.45128799 54.48012787 -37.45128799 54.48012787 -37.61679077 53.13677979 C-37.84329455 51.28475532 -38.06667357 49.43234634 -38.28710938 47.57958984 C-38.62238302 44.77191534 -38.97062026 41.96606707 -39.3203125 39.16015625 C-39.53984692 37.35165755 -39.75862124 35.54306638 -39.9765625 33.734375 C-40.07965729 32.90798523 -40.18275208 32.08159546 -40.28897095 31.23016357 C-42.09194993 15.81400498 -42.09194993 15.81400498 -39.31640625 11.203125 C-34.20661834 7.80863692 -28.68033213 5.84514575 -22.9375 3.75 C-21.75349609 3.30398437 -20.56949219 2.85796875 -19.34960938 2.3984375 C-6.36209671 -2.45808282 -6.36209671 -2.45808282 0 0 Z " fill="#71C7F5" transform="translate(60,13)"/>
<path d="M0 0 C0 0.99 0 1.98 0 3 C1.32 3.33 2.64 3.66 4 4 C4.495 7.465 4.495 7.465 5 11 C8.3 10.67 11.6 10.34 15 10 C15.66 12.31 16.32 14.62 17 17 C12.375 21 12.375 21 9 21 C9 20.34 9 19.68 9 19 C2.54869944 20.16334928 -2.81977519 22.10779496 -8.71484375 24.9765625 C-11 26 -11 26 -13 26 C-13 26.7425 -13 27.485 -13 28.25 C-14.19504426 31.53637171 -14.82762053 31.68502948 -17.875 33.125 C-18.92300781 33.56199219 -18.92300781 33.56199219 -19.9921875 34.0078125 C-23.53613022 35.75909937 -24.78957869 37.38111379 -26.0625 41.125 C-26.371875 42.07375 -26.68125 43.0225 -27 44 C-27.99 44.495 -27.99 44.495 -29 45 C-28.78730469 45.63421875 -28.57460938 46.2684375 -28.35546875 46.921875 C-27.84318222 51.35793858 -29.07005641 55.00750969 -30.3125 59.25 C-30.53873047 60.07757813 -30.76496094 60.90515625 -30.99804688 61.7578125 C-32.28451809 66.28085252 -32.28451809 66.28085252 -33 68 C-33.99 68.495 -33.99 68.495 -35 69 C-36.83850813 58.17757623 -38.39932773 47.33981704 -39.6875 36.4375 C-39.81874268 35.35678223 -39.94998535 34.27606445 -40.08520508 33.16259766 C-40.43606137 30.11054796 -40.73691912 27.06079595 -41 24 C-41.08459473 23.06816895 -41.16918945 22.13633789 -41.25634766 21.17626953 C-41.46940324 17.10412229 -41.44857313 14.74519341 -39.31640625 11.203125 C-34.20661834 7.80863692 -28.68033213 5.84514575 -22.9375 3.75 C-21.75349609 3.30398437 -20.56949219 2.85796875 -19.34960938 2.3984375 C-6.36209671 -2.45808282 -6.36209671 -2.45808282 0 0 Z " fill="#3599CF" transform="translate(60,13)"/>
<path d="M0 0 C5.7234375 -0.12375 5.7234375 -0.12375 11.5625 -0.25 C12.75174072 -0.28641602 13.94098145 -0.32283203 15.16625977 -0.36035156 C22.75736867 -0.43959203 27.13538542 0.52184688 32.875 5.6875 C35.33046597 10.73484672 35.62629548 15.98895978 33.875 21.3125 C31.83171589 25.96305162 28.91554457 28.08783592 24.375 30.25 C19.52401257 31.32799721 14.96578618 31.12111674 10 31 C10 36.28 10 41.56 10 47 C6.7 47 3.4 47 0 47 C0 31.49 0 15.98 0 0 Z M10 8 C10 12.62 10 17.24 10 22 C14.26720303 23.06680076 16.74148676 22.92913016 21 22 C23.38268836 20.41154109 23.88603501 19.30933354 24.875 16.625 C25.0376843 13.20862965 24.02489572 11.69986096 22 9 C19.47524538 7.73762269 17.68799534 7.90143596 14.875 7.9375 C13.26625 7.958125 11.6575 7.97875 10 8 Z " fill="#174AA6" transform="translate(215,24)"/>
<path d="M0 0 C23 0 23 0 31 4 C34.06823577 7.16411813 34.24550511 10.12202227 34.4375 14.375 C34.27007976 19.77612264 33.35890202 22.7571764 30 27 C24.96928274 30.14419829 20.60890446 31.13959085 14.75 31.0625 C12.39875 31.0315625 12.39875 31.0315625 10 31 C10 36.28 10 41.56 10 47 C6.7 47 3.4 47 0 47 C0 31.49 0 15.98 0 0 Z M10 8 C10 12.95 10 17.9 10 23 C11.5675 22.896875 13.135 22.79375 14.75 22.6875 C15.63171875 22.62949219 16.5134375 22.57148437 17.421875 22.51171875 C20.40433985 21.91974467 21.85474657 21.14525343 24 19 C24.80317245 16.2525963 24.64813636 13.77772726 24 11 C21.66863973 8.59343456 19.97827183 8.07034396 16.6640625 7.83203125 C14.44207193 7.81450767 12.21983551 7.90060438 10 8 Z " fill="#174BA7" transform="translate(95,24)"/>
<path d="M0 0 C3.76962807 2.96718249 5.33855118 6.3193398 6 11 C6.07869838 12.98438396 6.10784044 14.97111348 6.09765625 16.95703125 C6.09443359 18.06884766 6.09121094 19.18066406 6.08789062 20.32617188 C6.07532227 22.0519043 6.07532227 22.0519043 6.0625 23.8125 C6.05798828 24.98232422 6.05347656 26.15214844 6.04882812 27.35742188 C6.03706943 30.23830323 6.01913474 33.11915819 6 36 C2.37 36 -1.26 36 -5 36 C-5.495 23.13 -5.495 23.13 -6 10 C-11.09104463 8.508359 -11.09104463 8.508359 -16 11 C-16 19.25 -16 27.5 -16 36 C-19.3 36 -22.6 36 -26 36 C-26 24.12 -26 12.24 -26 0 C-23.36 0 -20.72 0 -18 0 C-17.34 0.99 -16.68 1.98 -16 3 C-15.5153125 2.69964844 -15.030625 2.39929687 -14.53125 2.08984375 C-9.17963977 -0.9461659 -5.97762294 -1.76388874 0 0 Z " fill="#1F4A9A" transform="translate(200,35)"/>
<path d="M0 0 C3.82158012 2.43191462 5.32820787 4.48462362 6.75 8.75 C6.83315752 10.81498892 6.85735878 12.8825789 6.84765625 14.94921875 C6.84443359 16.15771484 6.84121094 17.36621094 6.83789062 18.61132812 C6.82951172 19.87396484 6.82113281 21.13660156 6.8125 22.4375 C6.80798828 23.71173828 6.80347656 24.98597656 6.79882812 26.29882812 C6.78702873 29.44926564 6.77056597 32.59960949 6.75 35.75 C4.11 35.75 1.47 35.75 -1.25 35.75 C-1.25 35.09 -1.25 34.43 -1.25 33.75 C-2.219375 34.245 -3.18875 34.74 -4.1875 35.25 C-8.51846115 37.08604641 -12.60369933 37.55918719 -17.25 36.75 C-20.12029869 34.95606332 -21.74131638 33.76736724 -23.25 30.75 C-23.77954417 26.33134453 -23.83712449 22.83030907 -21.6875 18.875 C-16.13377136 14.03328785 -10.36895699 13.21814003 -3.25 12.75 C-3.91 11.43 -4.57 10.11 -5.25 8.75 C-10.46979128 8.5700072 -14.32262981 8.77905192 -19.25 10.75 C-20.8125 8.4375 -20.8125 8.4375 -22.25 5.75 C-21.25 2.75 -21.25 2.75 -18.9921875 1.58203125 C-12.2640766 -0.81038965 -6.94870826 -2.6725801 0 0 Z M-13.25 22.75 C-13.75059916 25.33517587 -13.75059916 25.33517587 -13.25 27.75 C-12.14471558 29.06968178 -12.14471558 29.06968178 -9.375 29 C-6.3347639 28.98976075 -6.3347639 28.98976075 -4.375 27.625 C-2.7817901 24.96965017 -3.04785968 22.78210482 -3.25 19.75 C-7.46712557 19.38853209 -9.96110421 20.02491491 -13.25 22.75 Z " fill="#154AA9" transform="translate(278.25,35.25)"/>
<path d="M0 0 C3.36198939 4.62273542 4.25137142 8.23580061 4.1953125 13.92578125 C4.18886719 15.08271484 4.18242187 16.23964844 4.17578125 17.43164062 C4.15902344 18.62982422 4.14226562 19.82800781 4.125 21.0625 C4.11597656 22.28001953 4.10695312 23.49753906 4.09765625 24.75195312 C4.07413037 27.75150274 4.04125653 30.75065044 4 33.75 C1.03 33.75 -1.94 33.75 -5 33.75 C-5.33 33.09 -5.66 32.43 -6 31.75 C-6.639375 32.245 -7.27875 32.74 -7.9375 33.25 C-12.0359398 35.25739908 -15.50981588 35.50649841 -20 34.75 C-22.87029869 32.95606332 -24.49131638 31.76736724 -26 28.75 C-26.52954417 24.33134453 -26.58712449 20.83030907 -24.4375 16.875 C-18.88377136 12.03328785 -13.11895699 11.21814003 -6 10.75 C-6.33 9.43 -6.66 8.11 -7 6.75 C-12.4389165 6.53244334 -16.87080814 6.64571616 -22 8.75 C-23.5625 6.4375 -23.5625 6.4375 -25 3.75 C-24 0.75 -24 0.75 -21.25 -0.875 C-14.2650488 -3.83017166 -6.34391904 -4.75793928 0 0 Z M-17 21.75 C-16.50243908 24.50641416 -16.50243908 24.50641416 -15 26.75 C-9.97500306 26.46530797 -9.97500306 26.46530797 -6 23.75 C-5.83318891 20.66652174 -5.83318891 20.66652174 -6 17.75 C-10.81430721 17.18361092 -13.20307814 18.92438373 -17 21.75 Z " fill="#204A97" transform="translate(161,37.25)"/>
<path d="M0 0 C0 0.99 0 1.98 0 3 C1.32 3.33 2.64 3.66 4 4 C4.495 7.465 4.495 7.465 5 11 C8.3 10.67 11.6 10.34 15 10 C15 10.33 15 10.66 15 11 C6.09173908 13.9151618 -2.80788837 16.17782636 -12 18 C-12.9590625 18.19207031 -13.918125 18.38414063 -14.90625 18.58203125 C-15.5971875 18.71996094 -16.288125 18.85789062 -17 19 C-17 19.66 -17 20.32 -17 21 C-18.45537568 21.83848804 -19.91440373 22.67063934 -21.375 23.5 C-22.18710937 23.9640625 -22.99921875 24.428125 -23.8359375 24.90625 C-26 26 -26 26 -28 26 C-28.33 27.65 -28.66 29.3 -29 31 C-31.15377564 28.37801226 -32.40072174 26.35595828 -33 23 C-33.66 23 -34.32 23 -35 23 C-35 21.02 -35 19.04 -35 17 C-30.74531695 15.05926738 -26.48623606 13.17697477 -22.1328125 11.46875 C-21.1264978 11.07357178 -21.1264978 11.07357178 -20.09985352 10.67041016 C-18.75317178 10.14464753 -17.40471651 9.62340281 -16.05444336 9.10693359 C-13.21627011 7.99858652 -11.17923445 7.17923445 -9 5 C-14.0756482 5.38067362 -17.06159217 7.1250931 -21.0703125 10.0390625 C-23 11 -23 11 -24.8203125 10.52734375 C-28.13567801 9.72523919 -30.55352926 10.88266466 -33.75 11.9375 C-35.50570312 12.50791016 -35.50570312 12.50791016 -37.296875 13.08984375 C-38.18890625 13.39019531 -39.0809375 13.69054688 -40 14 C-38.96946601 10.93176335 -38.17682537 10.09365523 -35.26611328 8.55200195 C-34.12899902 8.11847412 -32.99188477 7.68494629 -31.8203125 7.23828125 C-31.21113983 7.00215622 -30.60196716 6.76603119 -29.97433472 6.52275085 C-28.02931896 5.7728096 -26.0774605 5.04280781 -24.125 4.3125 C-22.81853703 3.81047501 -21.51254116 3.30723262 -20.20703125 2.80273438 C-6.42684804 -2.48310038 -6.42684804 -2.48310038 0 0 Z " fill="#63B3D8" transform="translate(60,13)"/>
<path d="M0 0 C3.3 0 6.6 0 10 0 C10.33 14.19 10.66 28.38 11 43 C11.66 43.33 12.32 43.66 13 44 C13.59355614 46.64860427 13.74209269 49.29197322 14 52 C5.89108911 52.46782178 5.89108911 52.46782178 2.5 50.6875 C-0.05279179 47.81560924 -0.12358051 45.10688741 -0.11352539 41.43676758 C-0.11344986 40.51603958 -0.11337433 39.59531158 -0.11329651 38.64668274 C-0.10813522 37.65597275 -0.10297394 36.66526276 -0.09765625 35.64453125 C-0.0962413 34.62775803 -0.09482635 33.6109848 -0.09336853 32.56340027 C-0.08776707 29.31307036 -0.07521432 26.06280912 -0.0625 22.8125 C-0.05748519 20.61002704 -0.05292225 18.40755299 -0.04882812 16.20507812 C-0.03779716 10.80335893 -0.02053154 5.40169111 0 0 Z " fill="#194BA5" transform="translate(294,20)"/>
<path d="M0 0 C0.33 0 0.66 0 1 0 C1.50509639 3.08252089 2.00317999 6.16613525 2.5 9.25 C2.64308594 10.12269531 2.78617188 10.99539062 2.93359375 11.89453125 C3.06894531 12.73886719 3.20429688 13.58320312 3.34375 14.453125 C3.46943359 15.22817383 3.59511719 16.00322266 3.72460938 16.80175781 C4 19 4 19 4 23 C8.74871461 20.88946017 10.07531268 18.35889069 11.91015625 13.7421875 C13 12 13 12 15.05859375 11.3828125 C15.69925781 11.25648437 16.33992188 11.13015625 17 11 C17.33 10.34 17.66 9.68 18 9 C19 7 19 7 21.125 6.25 C21.74375 6.1675 22.3625 6.085 23 6 C23 5.34 23 4.68 23 4 C24.11375 3.525625 25.2275 3.05125 26.375 2.5625 C28.26710994 1.74693537 30.15712709 0.92143645 32 0 C33.70702735 -0.06996014 35.41668003 -0.08440154 37.125 -0.0625 C38.03507812 -0.05347656 38.94515625 -0.04445313 39.8828125 -0.03515625 C40.93082031 -0.01775391 40.93082031 -0.01775391 42 0 C39.38333372 2.61666628 36.35651983 3.71634007 33 5.125 C32.35804687 5.40214844 31.71609375 5.67929687 31.0546875 5.96484375 C26.26254618 8 26.26254618 8 24 8 C24 8.7425 24 9.485 24 10.25 C22.80495574 13.53637171 22.17237947 13.68502948 19.125 15.125 C18.07699219 15.56199219 18.07699219 15.56199219 17.0078125 16.0078125 C13.46386978 17.75909937 12.21042131 19.38111379 10.9375 23.125 C10.628125 24.07375 10.31875 25.0225 10 26 C9.34 26.33 8.68 26.66 8 27 C8.21269531 27.63421875 8.42539062 28.2684375 8.64453125 28.921875 C9.15681778 33.35793858 7.92994359 37.00750969 6.6875 41.25 C6.46126953 42.07757813 6.23503906 42.90515625 6.00195312 43.7578125 C4.71548191 48.28085252 4.71548191 48.28085252 4 50 C3.01 50.495 3.01 50.495 2 51 C-0.04622187 38.69538581 -1.73971749 26.41007605 -3 14 C-2.34 14 -1.68 14 -1 14 C-1.165 12.9275 -1.33 11.855 -1.5 10.75 C-2 7 -2 7 -2 3 C-1.34 3 -0.68 3 0 3 C0 2.01 0 1.02 0 0 Z " fill="#1A8E89" transform="translate(23,31)"/>
<path d="M0 0 C0.66 0.33 1.32 0.66 2 1 C2 9.25 2 17.5 2 26 C-1.96 25.67 -5.92 25.34 -10 25 C-9.67 23.35 -9.34 21.7 -9 20 C-8.01 20 -7.02 20 -6 20 C-4.64560332 17.29120665 -4.93498549 14.99066732 -5 12 C-8.83576122 10.61912596 -12.08355188 11.05715138 -16 12 C-17.40854666 13.81701858 -17.40854666 13.81701858 -18 16 C-18.66 16.99 -19.32 17.98 -20 19 C-19.01 19 -18.02 19 -17 19 C-16.67 19.99 -16.34 20.98 -16 22 C-14.35 22.33 -12.7 22.66 -11 23 C-11 24.98 -11 26.96 -11 29 C-18.99651568 29.6271777 -18.99651568 29.6271777 -23 27.125 C-25.71920503 24.23584466 -26.18867078 22.56530977 -26.3125 18.6875 C-26.34988281 17.92824219 -26.38726562 17.16898438 -26.42578125 16.38671875 C-25.81087691 12.93986966 -24.5389171 11.38616924 -22 9 C-18.765625 8.29296875 -18.765625 8.29296875 -15.25 8.1875 C-14.07953125 8.13980469 -12.9090625 8.09210937 -11.703125 8.04296875 C-10.81109375 8.02878906 -9.9190625 8.01460937 -9 8 C-9 7.34 -9 6.68 -9 6 C-7.88625 5.7525 -6.7725 5.505 -5.625 5.25 C-1.95384802 4.38994661 -1.95384802 4.38994661 -0.5625 1.875 C-0.376875 1.25625 -0.19125 0.6375 0 0 Z " fill="#144BAB" transform="translate(281,43)"/>
<path d="M0 0 C0.66 0 1.32 0 2 0 C4.80416737 3.72126978 5.39837041 6.57383845 5.51171875 11.17578125 C5.56489258 12.91118164 5.56489258 12.91118164 5.61914062 14.68164062 C5.64169922 15.87982422 5.66425781 17.07800781 5.6875 18.3125 C5.73874023 20.1387793 5.73874023 20.1387793 5.79101562 22.00195312 C5.87334817 25.00121014 5.94254921 28.00018014 6 31 C4.02 31 2.04 31 0 31 C-0.54372951 27.94152152 -1 25.11227195 -1 22 C-1.63514826 19.65789079 -2.2986716 17.32315031 -3 15 C-4.093125 15 -5.18625 15 -6.3125 15 C-8.54166667 15 -10.77083333 15 -13 15 C-12.7215625 15.86625 -12.7215625 15.86625 -12.4375 16.75 C-11.95392021 19.23698179 -12.37699581 20.58585878 -13 23 C-12.67 23.99 -12.34 24.98 -12 26 C-9.69 26.33 -7.38 26.66 -5 27 C-5.66 27.33 -6.32 27.66 -7 28 C-7.33 28.99 -7.66 29.98 -8 31 C-10.875 31.125 -10.875 31.125 -14 31 C-14.66 30.34 -15.32 29.68 -16 29 C-17.32 29 -18.64 29 -20 29 C-21.71689489 27.28310511 -21.25303054 25.09121863 -21.3125 22.75 C-21.2732557 18.97273628 -21.1374207 17.25448278 -19.3125 13.875 C-15.38095836 10.68726353 -11.86824336 11 -7 11 C-6.67 10.67 -6.34 10.34 -6 10 C-4.33382885 9.95936168 -2.66611905 9.957279 -1 10 C-1.66 8.02 -2.32 6.04 -3 4 C-2.34 3.34 -1.68 2.68 -1 2 C-0.67 2.99 -0.34 3.98 0 5 C0.66 5 1.32 5 2 5 C1.34 3.35 0.68 1.7 0 0 Z " fill="#154BA9" transform="translate(158,39)"/>
<path d="M0 0 C0.495 1.485 0.495 1.485 1 3 C0.34 3 -0.32 3 -1 3 C-1.33 3.99 -1.66 4.98 -2 6 C-4.29736328 7.30273438 -4.29736328 7.30273438 -7.3203125 8.59375 C-8.4134375 9.06683594 -9.5065625 9.53992188 -10.6328125 10.02734375 C-11.78523438 10.51332031 -12.93765625 10.99929687 -14.125 11.5 C-15.81882812 12.22896484 -15.81882812 12.22896484 -17.546875 12.97265625 C-19.73184148 13.91162896 -21.91958469 14.84417253 -24.11035156 15.76953125 C-26.44215244 16.76245761 -28.74815323 17.79454167 -31.0546875 18.84375 C-34 20 -34 20 -38 20 C-37.71572583 18.41532272 -37.42225182 16.8322943 -37.125 15.25 C-36.96257813 14.36828125 -36.80015625 13.4865625 -36.6328125 12.578125 C-36.03203736 10.13052256 -35.22002883 8.19400143 -34 6 C-33.67 7.32 -33.34 8.64 -33 10 C-31.80375 9.54625 -30.6075 9.0925 -29.375 8.625 C-26.98580238 7.71875263 -24.60357416 6.87369052 -22.16796875 6.09765625 C-17.40974758 4.44900008 -12.90548116 2.26128171 -8.33984375 0.14453125 C-4.91225085 -1.03007076 -3.38646224 -1.10748198 0 0 Z " fill="#4AAEEF" transform="translate(64,64)"/>
<path d="M0 0 C4.70588235 0.70588235 4.70588235 0.70588235 6 2 C6.37680627 6.72649879 5.47399994 9.95740923 3.59375 14.2734375 C2.84931641 16.00400391 2.84931641 16.00400391 2.08984375 17.76953125 C1.56519531 18.95933594 1.04054688 20.14914063 0.5 21.375 C-0.03094303 22.59982953 -0.56090104 23.82508655 -1.08984375 25.05078125 C-2.38360751 28.03819939 -3.68723786 31.02089328 -5 34 C-5.33 34 -5.66 34 -6 34 C-6.23757933 29.48599265 -6.35448137 26.79758309 -4.5 22.625 C-2.56785633 17.9556528 -2.72945864 13.97996511 -3 9 C-3.99 9.495 -3.99 9.495 -5 10 C-5.33 9.34 -5.66 8.68 -6 8 C-6.66 8.66 -7.32 9.32 -8 10 C-8 9.34 -8 8.68 -8 8 C-13.06165083 8.41904735 -17.28579566 9.03574819 -22 11 C-24.8125 11.125 -24.8125 11.125 -27 11 C-26 8 -26 8 -23.05078125 6.39453125 C-21.80958979 5.85575039 -20.56319297 5.32884113 -19.3125 4.8125 C-18.69955078 4.53986328 -18.08660156 4.26722656 -17.45507812 3.98632812 C-13.48786987 2.30773205 -10.29080374 1.70340066 -6 2 C-6 2.66 -6 3.32 -6 4 C-2.81765895 2.24545615 -2.81765895 2.24545615 0 0 Z " fill="#90DDF6" transform="translate(75,30)"/>
<path d="M0 0 C1.1446875 0.309375 1.1446875 0.309375 2.3125 0.625 C2.8075 4.09 2.8075 4.09 3.3125 7.625 C6.6125 7.295 9.9125 6.965 13.3125 6.625 C13.3125 6.955 13.3125 7.285 13.3125 7.625 C6.63539334 9.81003324 0.02050459 11.75498207 -6.875 13.125 C-11.22560907 13.99512181 -15.06918323 15.08060834 -19.125 16.875 C-23.48826916 18.778972 -26.10413018 18.82066169 -30.6875 17.625 C-30.57421875 15.78515625 -30.57421875 15.78515625 -29.6875 13.625 C-26.95703125 12.24609375 -26.95703125 12.24609375 -23.5 11.0625 C-16.75848784 8.71260147 -11.18290684 6.22925978 -5.6875 1.625 C-2.6875 -0.375 -2.6875 -0.375 0 0 Z " fill="#E2F4FC" transform="translate(61.6875,16.375)"/>
<path d="M0 0 C0.495 2.97 0.495 2.97 1 6 C-3.625 10 -3.625 10 -7 10 C-7 9.34 -7 8.68 -7 8 C-9.22855574 7.9185778 -11.45797655 7.86061921 -13.6875 7.8125 C-14.92886719 7.77769531 -16.17023437 7.74289063 -17.44921875 7.70703125 C-21.24981028 8.02061141 -22.86551132 8.96551927 -26 11 C-27.32 11 -28.64 11 -30 11 C-30 11.66 -30 12.32 -30 13 C-31.65071396 14.02611949 -33.31970006 15.02308143 -35 16 C-36.02019573 16.9793879 -37.02149805 17.97895449 -38 19 C-39.31963709 20.01800576 -40.65009646 21.02248365 -42 22 C-42.32105822 18.46835953 -42.48213712 16.64284949 -40.3125 13.75 C-37.94161906 11.95581983 -35.81097087 10.93699029 -33 10 C-33 9.34 -33 8.68 -33 8 C-26.41795762 5.67027366 -19.99049824 3.66596619 -13.11328125 2.4375 C-10.84798256 2.03579734 -10.84798256 2.03579734 -8.25 0.875 C-5.41620494 -0.22703141 -3.01218208 -0.14010149 0 0 Z " fill="#3DE2C3" transform="translate(76,24)"/>
<path d="M0 0 C0.33 0 0.66 0 1 0 C2.90197865 10.31370568 4.39107838 20.22949098 3.9765625 30.74194336 C3.91874479 32.49369242 3.95150814 34.24796798 4 36 C4.66 36.66 5.32 37.32 6 38 C6.046875 40.0234375 6.046875 40.0234375 5.75 42.375 C5.61851563 43.53128906 5.61851563 43.53128906 5.484375 44.7109375 C4.98335114 47.0786793 4.17347456 48.89351698 3 51 C0.75985074 47.34026897 0.38952109 43.56867195 -0.0703125 39.390625 C-0.19924393 38.30041046 -0.19924393 38.30041046 -0.33078003 37.18817139 C-0.60256581 34.87620519 -0.86391791 32.56319689 -1.125 30.25 C-1.30790578 28.6783052 -1.4914919 27.10668942 -1.67578125 25.53515625 C-2.12507492 21.690975 -2.56501772 17.84582583 -3 14 C-2.34 14 -1.68 14 -1 14 C-1.165 12.9275 -1.33 11.855 -1.5 10.75 C-2 7 -2 7 -2 3 C-1.34 3 -0.68 3 0 3 C0 2.01 0 1.02 0 0 Z " fill="#2356A5" transform="translate(23,31)"/>
<path d="M0 0 C0.02917228 3.22914752 0.04685663 6.45826083 0.0625 9.6875 C0.07087891 10.59951172 0.07925781 11.51152344 0.08789062 12.45117188 C0.09111328 13.33740234 0.09433594 14.22363281 0.09765625 15.13671875 C0.10289307 15.94842529 0.10812988 16.76013184 0.11352539 17.59643555 C-0.0070209 20.14864673 -0.440051 22.51026137 -1 25 C-3.31 25 -5.62 25 -8 25 C-8.02893932 21.37501666 -8.04677792 17.75006287 -8.0625 14.125 C-8.07087891 13.09246094 -8.07925781 12.05992188 -8.08789062 10.99609375 C-8.09111328 10.00996094 -8.09433594 9.02382813 -8.09765625 8.0078125 C-8.10289307 7.09660645 -8.10812988 6.18540039 -8.11352539 5.24658203 C-8 3 -8 3 -7 1 C-4.01793274 -0.8886426 -3.49368922 -1.16456307 0 0 Z " fill="#154BA9" transform="translate(205,44)"/>
<path d="M0 0 C3.53508103 0.29459009 4.76203444 0.74881413 7.25 3.375 C9.96293809 7.44440714 10.12013438 10.41137624 10.09765625 15.19921875 C10.09443359 16.40771484 10.09121094 17.61621094 10.08789062 18.86132812 C10.07951172 20.12396484 10.07113281 21.38660156 10.0625 22.6875 C10.05798828 23.96173828 10.05347656 25.23597656 10.04882812 26.54882812 C10.03702873 29.69926564 10.02056597 32.84960949 10 36 C7.36 36 4.72 36 2 36 C2 35.34 2 34.68 2 34 C-0.31 34.66 -2.62 35.32 -5 36 C-5.2475 35.38125 -5.495 34.7625 -5.75 34.125 C-7.20628639 31.64931313 -8.37812506 31.04874998 -11 30 C-11 29.01 -11 28.02 -11 27 C-11.99 27 -12.98 27 -14 27 C-12.79618552 24.50638429 -11.54571278 22.31856917 -10 20 C-7.6875 19.19921875 -7.6875 19.19921875 -5 18.6875 C-3.6696875 18.41486328 -3.6696875 18.41486328 -2.3125 18.13671875 C-1.549375 18.09160156 -0.78625 18.04648437 0 18 C0.66 18.66 1.32 19.32 2 20 C1.9765625 22.3828125 1.9765625 22.3828125 1.625 25.125 C1.51414062 26.03507812 1.40328125 26.94515625 1.2890625 27.8828125 C1.19367188 28.58148438 1.09828125 29.28015625 1 30 C0.67 29.34 0.34 28.68 0 28 C-0.66 27.67 -1.32 27.34 -2 27 C-1.01 23.535 -1.01 23.535 0 20 C-4.455 21.485 -4.455 21.485 -9 23 C-9 24.65 -9 26.3 -9 28 C-7.35 28.33 -5.7 28.66 -4 29 C-4 30.32 -4 31.64 -4 33 C-0.37 33 3.26 33 7 33 C7.05398641 29.10398092 7.09366918 25.20871138 7.125 21.3125 C7.14175781 20.20970703 7.15851563 19.10691406 7.17578125 17.97070312 C7.18222656 16.90400391 7.18867188 15.83730469 7.1953125 14.73828125 C7.20578613 13.75899658 7.21625977 12.77971191 7.22705078 11.77075195 C6.98177653 8.77761493 6.379597 6.66299064 5 4 C2.47627099 2.63921965 2.47627099 2.63921965 0 2 C0 1.34 0 0.68 0 0 Z " fill="#224A93" transform="translate(275,35)"/>
<path d="M0 0 C4.75 0.875 4.75 0.875 7 2 C7 9.26 7 16.52 7 24 C4.69 24 2.38 24 0 24 C-1.61686074 22.38313926 -1.12989349 20.6092385 -1.1328125 18.37890625 C-1.13410156 17.44369141 -1.13539063 16.50847656 -1.13671875 15.54492188 C-1.13285156 14.56072266 -1.12898437 13.57652344 -1.125 12.5625 C-1.12886719 11.58216797 -1.13273438 10.60183594 -1.13671875 9.59179688 C-1.13542969 8.65529297 -1.13414062 7.71878906 -1.1328125 6.75390625 C-1.13168457 5.89095947 -1.13055664 5.0280127 -1.12939453 4.13891602 C-1 2 -1 2 0 0 Z " fill="#164AAA" transform="translate(176,46)"/>
<path d="M0 0 C7.59 0 15.18 0 23 0 C23 0.33 23 0.66 23 1 C15.74 1 8.48 1 1 1 C1 15.85 1 30.7 1 46 C3.31 46 5.62 46 8 46 C8 40.72 8 35.44 8 30 C10.35679752 28.82160124 11.63799685 28.96032981 14.25 29.0625 C18.21253451 29.12011359 21.297206 28.51909497 25 27 C23.35 25.35 21.7 23.7 20 22 C20.495 21.67 20.99 21.34 21.5 21 C23.91251235 17.78331686 23.25117136 14.95594889 23 11 C22.67 10.34 22.34 9.68 22 9 C23.32 9.66 24.64 10.32 26 11 C26.25 18.625 26.25 18.625 24 22 C25.98 24.97 25.98 24.97 28 28 C21.64914186 30.82260362 16.94693044 31.28945544 10 31 C10 36.28 10 41.56 10 47 C6.7 47 3.4 47 0 47 C0 31.49 0 15.98 0 0 Z " fill="#2B4F93" transform="translate(95,24)"/>
<path d="M0 0 C0.66 0.33 1.32 0.66 2 1 C-1.18447021 4.33611164 -4.41258498 6.26645786 -8.6875 7.9375 C-9.56664063 8.28554688 -10.44578125 8.63359375 -11.3515625 8.9921875 C-13.02383621 9.62853944 -14.70546186 10.24128174 -16.3984375 10.8203125 C-18.29364396 11.47029305 -20.15154906 12.22701142 -22 13 C-22.33 13.99 -22.66 14.98 -23 16 C-18.83861737 16.08159574 -15.0527516 15.98248524 -11 15 C-14.5087188 18.09592835 -17.49197399 19.74194623 -22 21 C-22.33 22.65 -22.66 24.3 -23 26 C-25.15377564 23.37801226 -26.40072174 21.35595828 -27 18 C-27.66 18 -28.32 18 -29 18 C-29 16.02 -29 14.04 -29 12 C-21.10287385 8.39780211 -13.06782565 5.19427486 -5 2 C-4.06671875 1.59007813 -3.1334375 1.18015625 -2.171875 0.7578125 C-1.45515625 0.50773437 -0.7384375 0.25765625 0 0 Z " fill="#A7D3F2" transform="translate(54,18)"/>
<path d="M0 0 C7.59 0 15.18 0 23 0 C23 0.33 23 0.66 23 1 C16.07 1 9.14 1 2 1 C2.33 15.19 2.66 29.38 3 44 C4.65 44.33 6.3 44.66 8 45 C8 40.38 8 35.76 8 31 C8.66 31 9.32 31 10 31 C10 36.28 10 41.56 10 47 C6.7 47 3.4 47 0 47 C0 31.49 0 15.98 0 0 Z " fill="#254A90" transform="translate(215,24)"/>
<path d="M0 0 C0.495 1.98 0.495 1.98 1 4 C-6.51886277 7.96958594 -14.20460158 11.48817241 -22 14.875 C-22.91998779 15.28032959 -23.83997559 15.68565918 -24.7878418 16.10327148 C-26.09942261 16.66703491 -26.09942261 16.66703491 -27.4375 17.2421875 C-28.21996094 17.5810498 -29.00242187 17.91991211 -29.80859375 18.26904297 C-32 19 -32 19 -36 19 C-35.505 17.515 -35.505 17.515 -35 16 C-34.34 16 -33.68 16 -33 16 C-32.34 15.01 -31.68 14.02 -31 13 C-29.22265625 12.2265625 -29.22265625 12.2265625 -27.0625 11.625 C-22.34312532 10.19165195 -18.01567838 8.22686238 -13.578125 6.0859375 C-11.0421255 5.01774377 -8.70930215 4.4385561 -6 4 C-6 3.34 -6 2.68 -6 2 C-3 0 -3 0 0 0 Z " fill="#45A2E4" transform="translate(62,65)"/>
<path d="M0 0 C0.33 0 0.66 0 1 0 C1 1.65 1 3.3 1 5 C4.3 4.67 7.6 4.34 11 4 C11 4.33 11 4.66 11 5 C4.32289334 7.18503324 -2.29199541 9.12998207 -9.1875 10.5 C-13.55105936 11.37368263 -17.42447997 12.46581432 -21.5 14.25 C-25.36932904 15.9356483 -27.84638663 16.31166738 -32 15 C-29.38721273 11.84056574 -26.40618207 10.75315633 -22.625 9.3125 C-20.94277344 8.65701172 -20.94277344 8.65701172 -19.2265625 7.98828125 C-16.23869839 7.07311222 -14.09052368 6.7021859 -11 7 C-10.67 7.33 -10.34 7.66 -10 8 C-8.68 8 -7.36 8 -6 8 C-6 7.34 -6 6.68 -6 6 C-4.7934375 5.2884375 -4.7934375 5.2884375 -3.5625 4.5625 C-0.7081924 3.20016328 -0.7081924 3.20016328 0 0 Z " fill="#C9E9F3" transform="translate(64,19)"/>
<path d="M0 0 C0.66 1.32 1.32 2.64 2 4 C1.34 4.66 0.68 5.32 0 6 C-0.99 5.34 -1.98 4.68 -3 4 C-8.22829141 4.13070729 -12.54395074 6.54245844 -17.18359375 8.7265625 C-22.57709724 11.16523398 -28.14463459 13.05558622 -34 14 C-34.33 12.02 -34.66 10.04 -35 8 C-33.68 7.67 -32.36 7.34 -31 7 C-31.33 7.66 -31.66 8.32 -32 9 C-27.55845848 9.55519269 -24.89543074 8.08926194 -21.09375 6.08203125 C-14.34113449 2.59234003 -7.47568056 1.16807509 0 0 Z " fill="#5DBAF2" transform="translate(65,60)"/>
<path d="M0 0 C0.66 0 1.32 0 2 0 C2.99 1.98 3.98 3.96 5 6 C6.32 4.68 7.64 3.36 9 2 C10.74695799 5.49391597 9.83943095 9.28343548 9 13 C7.125 16.0625 7.125 16.0625 5 18 C4.01 18 3.02 18 2 18 C0.59545452 11.88019467 -0.23268915 6.28260706 0 0 Z " fill="#69A7D4" transform="translate(25,36)"/>
<path d="M0 0 C0 0.33 0 0.66 0 1 C-0.94875 1.309375 -1.8975 1.61875 -2.875 1.9375 C-5.86080408 2.87394742 -5.86080408 2.87394742 -8 4 C-10.65756465 4.43225449 -13.32332885 4.69779519 -16 5 C-15.67 5.99 -15.34 6.98 -15 8 C-12.11785113 7.11785113 -12.11785113 7.11785113 -10 6 C-7.99453311 6.29868656 -5.99422795 6.63371323 -4 7 C-3.01 7 -2.02 7 -1 7 C0.76462683 10.08809695 1 11.23312136 1 15 C-0.32 15 -1.64 15 -3 15 C-3 15.66 -3 16.32 -3 17 C-6.63 17.33 -10.26 17.66 -14 18 C-11.8553857 15.8553857 -10.98260002 15.55435397 -8.125 14.875 C-7.44695312 14.70742188 -6.76890625 14.53984375 -6.0703125 14.3671875 C-4 14 -4 14 0 14 C-0.66 12.68 -1.32 11.36 -2 10 C-7.21979128 9.8200072 -11.07262981 10.02905192 -16 12 C-17.5625 9.6875 -17.5625 9.6875 -19 7 C-18 4 -18 4 -15.7421875 2.83203125 C-10.27737283 0.88882058 -5.80965828 -0.51641407 0 0 Z " fill="#214991" transform="translate(275,34)"/>
<path d="M0 0 C0.625 2.375 0.625 2.375 1 5 C-1.29823659 7.29823659 -1.94880882 7.29690384 -5.0625 7.5625 C-8.76736617 7.55913448 -8.76736617 7.55913448 -10 9 C-11.66617115 9.04063832 -13.33388095 9.042721 -15 9 C-15.6875 7.1875 -15.6875 7.1875 -16 5 C-14.3486488 2.31655431 -12.66939836 1.88148243 -9.6875 0.8125 C-6.30322173 0.06681157 -3.44633662 -0.16811398 0 0 Z " fill="#164AA8" transform="translate(154,34)"/>
<path d="M0 0 C0.66 0.33 1.32 0.66 2 1 C1.67 1.99 1.34 2.98 1 4 C2.65 4.33 4.3 4.66 6 5 C5 7 4 9 3 11 C1.68 10.67 0.36 10.34 -1 10 C-0.67 9.34 -0.34 8.68 0 8 C-1.32 7.67 -2.64 7.34 -4 7 C-4.33 8.65 -4.66 10.3 -5 12 C-5.66 12 -6.32 12 -7 12 C-7.33 13.65 -7.66 15.3 -8 17 C-8.33 16.01 -8.66 15.02 -9 14 C-9.66 13.67 -10.32 13.34 -11 13 C-10.01 12.67 -9.02 12.34 -8 12 C-7.731875 10.9275 -7.46375 9.855 -7.1875 8.75 C-5.67862271 3.98512434 -3.97722572 2.85322715 0 0 Z " fill="#69C2EE" transform="translate(41,45)"/>
<path d="M0 0 C0.33 1.98 0.66 3.96 1 6 C-3.625 10 -3.625 10 -7 10 C-7 9.34 -7 8.68 -7 8 C-8.32 7.67 -9.64 7.34 -11 7 C-10.01 7 -9.02 7 -8 7 C-8 6.34 -8 5.68 -8 5 C-10.97 4.505 -10.97 4.505 -14 4 C-9.2157506 0.8105004 -5.77575443 -0.26863974 0 0 Z " fill="#3BF8C9" transform="translate(76,24)"/>
<path d="M0 0 C0 0.99 0 1.98 0 3 C-2.39175361 4.01085436 -4.78761585 5.00879203 -7.1875 6 C-7.86103516 6.28617188 -8.53457031 6.57234375 -9.22851562 6.8671875 C-12.94993794 8.39206299 -15.96471408 9.37610432 -20 9 C-19 6 -19 6 -16.015625 4.39453125 C-14.76525786 3.85580924 -13.50975171 3.3288962 -12.25 2.8125 C-11.62867188 2.53986328 -11.00734375 2.26722656 -10.3671875 1.98632812 C-6.78398502 0.47820809 -3.88891848 -0.33397201 0 0 Z " fill="#B0E9F1" transform="translate(68,32)"/>
<path d="M0 0 C-0.125 1.875 -0.125 1.875 -1 4 C-5.34768609 6.12328855 -8.35172256 6.05642669 -13 5 C-13.66 5 -14.32 5 -15 5 C-14.67 4.01 -14.34 3.02 -14 2 C-12.68 2 -11.36 2 -10 2 C-10 1.01 -10 0.02 -10 -1 C-6.18510326 -2.46726798 -3.70988378 -1.43336419 0 0 Z " fill="#3CB2E3" transform="translate(60,13)"/>
<path d="M0 0 C0.33 0.99 0.66 1.98 1 3 C0.01 3.495 0.01 3.495 -1 4 C-0.690625 5.0209375 -0.690625 5.0209375 -0.375 6.0625 C0.10063829 9.78833331 -0.82330851 12.46992554 -2 16 C-2.99 16 -3.98 16 -5 16 C-5.8814688 13.35559361 -6.16174818 11.71939248 -6.1875 9 C-6.20167969 8.319375 -6.21585938 7.63875 -6.23046875 6.9375 C-6 5 -6 5 -4 2 C-1.875 0.8125 -1.875 0.8125 0 0 Z " fill="#1A7B86" transform="translate(32,54)"/>
<path d="M0 0 C0.66 0.33 1.32 0.66 2 1 C-1.24028888 4.39458835 -4.52418187 6.30728048 -8.875 8 C-10.13957031 8.495 -10.13957031 8.495 -11.4296875 9 C-12.27789062 9.33 -13.12609375 9.66 -14 10 C-14.86882813 10.391875 -15.73765625 10.78375 -16.6328125 11.1875 C-19 12 -19 12 -22 11 C-18.87804635 7.4124249 -16.01363713 5.97020521 -11.5625 4.375 C-10.45003906 3.97023438 -9.33757813 3.56546875 -8.19140625 3.1484375 C-7.13824219 2.76945312 -6.08507812 2.39046875 -5 2 C-4.08089844 1.60039062 -3.16179688 1.20078125 -2.21484375 0.7890625 C-1.48394531 0.52867188 -0.75304687 0.26828125 0 0 Z " fill="#B8DCEF" transform="translate(54,18)"/>
<path d="M0 0 C3.64013072 1.91585827 5.51048794 3.14758017 7 7 C7.94065701 14.14243052 7.1675056 19.13944525 3 25 C1.63776454 22.27552909 2.64642247 20.92402465 3.51953125 18.15234375 C4.41283816 14.15061928 4.14764334 10.07659656 4 6 C3.01 5.67 2.02 5.34 1 5 C0.67 3.35 0.34 1.7 0 0 Z " fill="#274C90" transform="translate(122,26)"/>
<path d="M0 0 C0.91007812 0.00902344 1.82015625 0.01804687 2.7578125 0.02734375 C3.80582031 0.04474609 3.80582031 0.04474609 4.875 0.0625 C2.12192802 2.81557198 -1.1818308 3.81158236 -4.75 5.1875 C-5.80960938 5.60322266 -5.80960938 5.60322266 -6.890625 6.02734375 C-8.63359377 6.71039908 -10.37906409 7.38706494 -12.125 8.0625 C-12.125 7.4025 -12.125 6.7425 -12.125 6.0625 C-12.785 6.0625 -13.445 6.0625 -14.125 6.0625 C-14.125 5.4025 -14.125 4.7425 -14.125 4.0625 C-13.01125 3.588125 -11.8975 3.11375 -10.75 2.625 C-6.57737443 0.82645449 -4.51296935 -0.05785858 0 0 Z " fill="#28BFA0" transform="translate(60.125,30.9375)"/>
<path d="M0 0 C-1.45537568 0.83848804 -2.91440373 1.67063934 -4.375 2.5 C-5.59316406 3.19609375 -5.59316406 3.19609375 -6.8359375 3.90625 C-9 5 -9 5 -11 5 C-11.33 6.65 -11.66 8.3 -12 10 C-14.15377564 7.37801226 -15.40072174 5.35595828 -16 2 C-16.66 2 -17.32 2 -18 2 C-18 1.34 -18 0.68 -18 0 C-15.83125748 0.50603992 -14.00032373 0.99983813 -12 2 C-9.67220278 1.32860498 -7.45385063 0.45847339 -5.19140625 -0.40625 C-3 -1 -3 -1 0 0 Z " fill="#7CC6DA" transform="translate(43,34)"/>
<path d="M0 0 C0.33 0 0.66 0 1 0 C1 1.65 1 3.3 1 5 C4.3 4.67 7.6 4.34 11 4 C11 4.33 11 4.66 11 5 C3.6450086 7.44408524 -3.2501365 9.47458553 -11 10 C-10.67 9.34 -10.34 8.68 -10 8 C-8.68 8 -7.36 8 -6 8 C-6 7.34 -6 6.68 -6 6 C-4.7934375 5.2884375 -4.7934375 5.2884375 -3.5625 4.5625 C-0.7081924 3.20016328 -0.7081924 3.20016328 0 0 Z " fill="#A3F2EB" transform="translate(64,19)"/>
<path d="M0 0 C-2.91118213 1.34554945 -5.82975653 2.67424529 -8.75 4 C-9.575 4.3815625 -10.4 4.763125 -11.25 5.15625 C-12.04921875 5.5171875 -12.8484375 5.878125 -13.671875 6.25 C-14.77160645 6.75273438 -14.77160645 6.75273438 -15.89355469 7.265625 C-18 8 -18 8 -22 8 C-21.67 7.01 -21.34 6.02 -21 5 C-18.36 4.67 -15.72 4.34 -13 4 C-12.67 3.01 -12.34 2.02 -12 1 C-10.29296875 0.234375 -10.29296875 0.234375 -8.1875 -0.25 C-7.50042969 -0.42015625 -6.81335937 -0.5903125 -6.10546875 -0.765625 C-3.79583961 -1.02272657 -2.22113012 -0.61180482 0 0 Z " fill="#4E94CA" transform="translate(48,76)"/>
<path d="M0 0 C0.33 0.99 0.66 1.98 1 3 C0.00390625 4.82421875 0.00390625 4.82421875 -1.4375 6.6875 C-1.91058594 7.31011719 -2.38367188 7.93273438 -2.87109375 8.57421875 C-3.24363281 9.04472656 -3.61617187 9.51523437 -4 10 C-4.66 9.34 -5.32 8.68 -6 8 C-6.66 8.66 -7.32 9.32 -8 10 C-8 9.34 -8 8.68 -8 8 C-9.32 7.67 -10.64 7.34 -12 7 C-11.34 6.34 -10.68 5.68 -10 5 C-9.01 5 -8.02 5 -7 5 C-6.67 4.01 -6.34 3.02 -6 2 C-6 2.66 -6 3.32 -6 4 C-2.81765895 2.24545615 -2.81765895 2.24545615 0 0 Z " fill="#79D8F1" transform="translate(75,30)"/>
<path d="M0 0 C0.66 0 1.32 0 2 0 C2.66 2.97 3.32 5.94 4 9 C4.33 9 4.66 9 5 9 C4.88590407 10.45922693 4.75834456 11.91740598 4.625 13.375 C4.55539063 14.18710938 4.48578125 14.99921875 4.4140625 15.8359375 C4 18 4 18 2 20 C-0.29612756 6.3667426 -0.29612756 6.3667426 0 0 Z " fill="#0F5B94" transform="translate(24,60)"/>
<path d="M0 0 C0.66 0 1.32 0 2 0 C3.27269123 6.62412783 2.94745231 10.88676558 0 17 C-0.66 17.33 -1.32 17.66 -2 18 C-2 15.36 -2 12.72 -2 10 C-1.34 10 -0.68 10 0 10 C0 6.7 0 3.4 0 0 Z " fill="#204691" transform="translate(247,32)"/>
<path d="M0 0 C0.99 0.33 1.98 0.66 3 1 C0.5313059 6.67799642 0.5313059 6.67799642 -2.0625 8.25 C-2.701875 8.4975 -3.34125 8.745 -4 9 C-4.66 9.66 -5.32 10.32 -6 11 C-6.49046322 5.60490463 -6.49046322 5.60490463 -4.125 2.6875 C-2 1 -2 1 0 0 Z " fill="#3BC9BA" transform="translate(40,35)"/>
<path d="M0 0 C-2.89642841 2.35082212 -5.65356331 3.83519406 -9.125 5.1875 C-10.42824219 5.70376953 -10.42824219 5.70376953 -11.7578125 6.23046875 C-14 7 -14 7 -16 7 C-16 6.34 -16 5.68 -16 5 C-11.05598191 1.14053924 -6.34247841 -2.33670257 0 0 Z " fill="#2F9ECD" transform="translate(53,18)"/>
<path d="M0 0 C0.66 0.33 1.32 0.66 2 1 C1.525625 2.175625 1.05125 3.35125 0.5625 4.5625 C-0.88806847 8.40103259 -1.57577103 11.92740191 -2 16 C-4.38224928 13.61775072 -4.32017149 12.9497963 -4.375 9.6875 C-4.30419139 5.29736646 -3.21299042 3.11258447 0 0 Z " fill="#214A90" transform="translate(259,52)"/>
<path d="M0 0 C1.32 0.66 2.64 1.32 4 2 C4 4.64 4 7.28 4 10 C3.34 8.68 2.68 7.36 2 6 C1.34 6 0.68 6 0 6 C0.0721875 6.62648438 0.144375 7.25296875 0.21875 7.8984375 C0.3115625 8.71570312 0.404375 9.53296875 0.5 10.375 C0.5928125 11.18710937 0.685625 11.99921875 0.78125 12.8359375 C1 15 1 15 1 17 C0.34 17 -0.32 17 -1 17 C-1.82369618 11.41153825 -2.1568099 6.5526875 -1 1 C-0.67 0.67 -0.34 0.34 0 0 Z " fill="#317CC3" transform="translate(21,28)"/>
<path d="M0 0 C0.94875 0.185625 1.8975 0.37125 2.875 0.5625 C3.57625 0.706875 4.2775 0.85125 5 1 C6.125 6.75 6.125 6.75 5 9 C4.34 8.67 3.68 8.34 3 8 C3.33 6.02 3.66 4.04 4 2 C1.03 2.66 -1.94 3.32 -5 4 C-5.99 2.68 -6.98 1.36 -8 0 C-5.1085745 -1.44571275 -3.12991264 -0.61370836 0 0 Z " fill="#1C4893" transform="translate(151,53)"/>
<path d="M0 0 C0.625 1.875 0.625 1.875 1 4 C-1 6 -1 6 -2.9453125 6.1953125 C-4.96354167 6.13020833 -6.98177083 6.06510417 -9 6 C-8.875 4.125 -8.875 4.125 -8 2 C-5.25822503 0.83328724 -2.99432393 0 0 0 Z " fill="#164AAE" transform="translate(154,35)"/>
<path d="M0 0 C0.103125 0.639375 0.20625 1.27875 0.3125 1.9375 C0.539375 2.618125 0.76625 3.29875 1 4 C1.99 4.33 2.98 4.66 4 5 C4.33 8.63 4.66 12.26 5 16 C4.01 16 3.02 16 2 16 C0.80911014 10.61972975 -0.2919519 5.54708616 0 0 Z " fill="#538ACD" transform="translate(25,38)"/>
<path d="M0 0 C0.763125 0.20625 1.52625 0.4125 2.3125 0.625 C2.3125 2.275 2.3125 3.925 2.3125 5.625 C1.6525 5.295 0.9925 4.965 0.3125 4.625 C0.3125 3.965 0.3125 3.305 0.3125 2.625 C-0.574375 3.12 -1.46125 3.615 -2.375 4.125 C-5.56336238 5.56878674 -7.26937546 5.92659922 -10.6875 5.625 C-3.19940476 -0.44642857 -3.19940476 -0.44642857 0 0 Z " fill="#D3F1FA" transform="translate(61.6875,16.375)"/>
<path d="M0 0 C1.1875 1.5625 1.1875 1.5625 2 4 C1 7.625 1 7.625 -1 11 C-4.1875 12.4375 -4.1875 12.4375 -7 13 C-7.33 12.01 -7.66 11.02 -8 10 C-7.236875 9.649375 -6.47375 9.29875 -5.6875 8.9375 C-2.09141882 6.34497636 -1.47896213 4.12552594 0 0 Z " fill="#25869C" transform="translate(35,44)"/>
<path d="M0 0 C-1 3 -1 3 -4.375 4.6875 C-8 6 -8 6 -11 6 C-10.03628506 3.59071265 -9.34789837 2.23992991 -7.1875 0.75 C-4.67678635 -0.11081611 -2.63651351 -0.14647297 0 0 Z " fill="#186B80" transform="translate(64,40)"/>
<path d="M0 0 C0.33 0.99 0.66 1.98 1 3 C1.99 3.33 2.98 3.66 4 4 C3.01 4.33 2.02 4.66 1 5 C1 6.65 1 8.3 1 10 C-0.98 10 -2.96 10 -5 10 C-4.67 8.35 -4.34 6.7 -4 5 C-3.01 4.67 -2.02 4.34 -1 4 C-0.26676204 1.98491642 -0.26676204 1.98491642 0 0 Z " fill="#6AC2EC" transform="translate(47,39)"/>
<path d="M0 0 C0.66 0.33 1.32 0.66 2 1 C1.5 2.9375 1.5 2.9375 0 5 C-2.69658452 5.68790422 -5.2017019 5.81946464 -8 6 C-7 3 -7 3 -3.5625 1.25 C-2.386875 0.8375 -1.21125 0.425 0 0 Z " fill="#AADFED" transform="translate(56,35)"/>
<path d="M0 0 C-1.98 0.33 -3.96 0.66 -6 1 C-6.33 1.99 -6.66 2.98 -7 4 C-7.99 4.66 -8.98 5.32 -10 6 C-10.33 6.66 -10.66 7.32 -11 8 C-11.66 8 -12.32 8 -13 8 C-13.33 6.68 -13.66 5.36 -14 4 C-13.34 4 -12.68 4 -12 4 C-12 3.34 -12 2.68 -12 2 C-10.75579353 1.4654744 -9.50429064 0.94791389 -8.25 0.4375 C-7.55390625 0.14746094 -6.8578125 -0.14257812 -6.140625 -0.44140625 C-3.69987216 -1.07831803 -2.3596345 -0.80248831 0 0 Z " fill="#5AD3CA" transform="translate(55,30)"/>
<path d="M0 0 C1.98 0 3.96 0 6 0 C6.33 1.98 6.66 3.96 7 6 C2.375 10 2.375 10 -1 10 C-1 9.34 -1 8.68 -1 8 C-2.32 7.67 -3.64 7.34 -5 7 C-2.66666667 7 -0.33333333 7 2 7 C2.66 5.02 3.32 3.04 4 1 C2.68 0.67 1.36 0.34 0 0 Z " fill="#62EFD5" transform="translate(70,24)"/>
<path d="M0 0 C0.33 0 0.66 0 1 0 C1 4.95 1 9.9 1 15 C-0.32 14.67 -1.64 14.34 -3 14 C-2.34 14 -1.68 14 -1 14 C-1.165 12.9275 -1.33 11.855 -1.5 10.75 C-2 7 -2 7 -2 3 C-1.34 3 -0.68 3 0 3 C0 2.01 0 1.02 0 0 Z " fill="#114FB7" transform="translate(23,31)"/>
<path d="M0 0 C0.33 0.99 0.66 1.98 1 3 C-3.07369424 5.03684712 -5.58937864 5.0257259 -10 4 C-6.66064924 0.50886057 -4.84725717 -0.1275594 0 0 Z " fill="#BFE0F1" transform="translate(42,30)"/>
<path d="M0 0 C0.66 0.33 1.32 0.66 2 1 C-1.37049384 4.53099355 -4.15769772 6.21476179 -9 7 C-9 6.01 -9 5.02 -9 4 C-7.54618103 3.30300448 -6.08677047 2.61766134 -4.625 1.9375 C-3.40683594 1.36322266 -3.40683594 1.36322266 -2.1640625 0.77734375 C-1.44992188 0.52082031 -0.73578125 0.26429687 0 0 Z " fill="#B0E2F7" transform="translate(54,18)"/>
<path d="M0 0 C-1 3 -1 3 -3.9375 4.6875 C-7 6 -7 6 -9 6 C-8.6875 4.125 -8.6875 4.125 -8 2 C-4.77208445 -0.1519437 -3.71599191 -0.20086443 0 0 Z " fill="#B8EDFC" transform="translate(44,18)"/>
<path d="M0 0 C0.33 0 0.66 0 1 0 C1.10832169 2.08218362 1.18573541 4.16599129 1.25 6.25 C1.29640625 7.41015625 1.3428125 8.5703125 1.390625 9.765625 C0.93035506 13.57666013 -0.05148444 14.65511755 -3 17 C-2.125 9.125 -2.125 9.125 -1 8 C-0.76924918 6.65252916 -0.58846937 5.29622435 -0.4375 3.9375 C-0.2209375 1.9884375 -0.2209375 1.9884375 0 0 Z " fill="#1F499B" transform="translate(127,34)"/>
<path d="M0 0 C-3.40858586 3.40858586 -8.32201465 3.93008394 -13 4.125 C-13.66 4.08375 -14.32 4.0425 -15 4 C-10.27844707 -0.02206361 -6.0476984 -0.14064415 0 0 Z " fill="#214A93" transform="translate(154,34)"/>
<path d="M0 0 C0.66 0 1.32 0 2 0 C2.33 2.64 2.66 5.28 3 8 C0.03 8 -2.94 8 -6 8 C-6 7.67 -6 7.34 -6 7 C-4.02 6.67 -2.04 6.34 0 6 C-0.33 5.34 -0.66 4.68 -1 4 C-0.5625 1.875 -0.5625 1.875 0 0 Z " fill="#264A93" transform="translate(305,64)"/>
<path d="M0 0 C0.66 0.66 1.32 1.32 2 2 C1.625 4.125 1.625 4.125 1 6 C-0.65 6.33 -2.3 6.66 -4 7 C-3.6875 4.625 -3.6875 4.625 -3 2 C-2.01 1.34 -1.02 0.68 0 0 Z " fill="#3591A3" transform="translate(45,38)"/>
<path d="M0 0 C-4.55426184 2.66590937 -7.73946963 3.31563182 -13 3 C-12.67 2.34 -12.34 1.68 -12 1 C-4.35711773 -1.38056989 -4.35711773 -1.38056989 0 0 Z " fill="#4897D5" transform="translate(48,76)"/>
<path d="M0 0 C2.0625 0.4375 2.0625 0.4375 4 1 C4 1.99 4 2.98 4 4 C6.64 4 9.28 4 12 4 C12 4.33 12 4.66 12 5 C3.80743982 5.63019694 3.80743982 5.63019694 0.4375 3 C-0.2740625 2.01 -0.2740625 2.01 -1 1 C-0.67 0.67 -0.34 0.34 0 0 Z " fill="#224992" transform="translate(258,67)"/>
<path d="M0 0 C-0.33 1.32 -0.66 2.64 -1 4 C-1.99 4 -2.98 4 -4 4 C-3.67 2.68 -3.34 1.36 -3 0 C-5.31 0 -7.62 0 -10 0 C-6.22996568 -2.61002376 -4.07631429 -1.66758312 0 0 Z " fill="#6EC8DF" transform="translate(60,13)"/>
<path d="M0 0 C1.231394 2.46278801 1.07159196 4.2795055 1 7 C0.34 7 -0.32 7 -1 7 C-1.33 8.65 -1.66 10.3 -2 12 C-2.33 11.01 -2.66 10.02 -3 9 C-3.66 8.67 -4.32 8.34 -5 8 C-4.01 7.67 -3.02 7.34 -2 7 C-0.77030122 3.48809191 -0.77030122 3.48809191 0 0 Z " fill="#4DADD2" transform="translate(35,50)"/>
<path d="M0 0 C0.33 0 0.66 0 1 0 C1.10884119 1.41493551 1.18597617 2.83232943 1.25 4.25 C1.29640625 5.03890625 1.3428125 5.8278125 1.390625 6.640625 C1 9 1 9 -3 13 C-2.01 8.71 -1.02 4.42 0 0 Z " fill="#4DA3BD" transform="translate(33,40)"/>
<path d="M0 0 C1.32 0.33 2.64 0.66 4 1 C3.67 2.98 3.34 4.96 3 7 C2.01 7 1.02 7 0 7 C0 4.69 0 2.38 0 0 Z " fill="#124BAD" transform="translate(175,37)"/>
<path d="M0 0 C1.65 0 3.3 0 5 0 C4 2 3 4 2 6 C0.68 5.67 -0.64 5.34 -2 5 C-1.34 3.35 -0.68 1.7 0 0 Z " fill="#699CC6" transform="translate(42,50)"/>
<path d="M0 0 C0.66 0.33 1.32 0.66 2 1 C2 1.99 2 2.98 2 4 C4.97 4.495 4.97 4.495 8 5 C6.1875 6.5625 6.1875 6.5625 4 8 C3.01 7.67 2.02 7.34 1 7 C-0.1875 3.9375 -0.1875 3.9375 -1 1 C-0.67 0.67 -0.34 0.34 0 0 Z " fill="#2A498E" transform="translate(137,38)"/>
<path d="M0 0 C1.875 0.125 1.875 0.125 4 1 C5.64661571 4.6068725 6.27162597 6.1851221 5 10 C2 4.25 2 4.25 2 2 C1.34 2 0.68 2 0 2 C0 1.34 0 0.68 0 0 Z " fill="#7AADDC" transform="translate(25,34)"/>
<path d="M0 0 C-6 4 -6 4 -10 4 C-10 3.34 -10 2.68 -10 2 C-6.3558226 -0.4294516 -4.28758728 -0.16179575 0 0 Z " fill="#4F95C6" transform="translate(58,71)"/>
<path d="M0 0 C2.0625 0.4375 2.0625 0.4375 4 1 C1.63707344 3.52588702 0.33537489 4.88820837 -3 6 C-1.125 1.125 -1.125 1.125 0 0 Z " fill="#23C1A5" transform="translate(38,38)"/>
<path d="M0 0 C2.97 0.495 2.97 0.495 6 1 C6 1.66 6 2.32 6 3 C3.36 3 0.72 3 -2 3 C-1.34 2.01 -0.68 1.02 0 0 Z " fill="#2AE5B2" transform="translate(62,28)"/>
<path d="M0 0 C2.31 0 4.62 0 7 0 C6.67 1.65 6.34 3.3 6 5 C5.67 4.01 5.34 3.02 5 2 C3.35 2 1.7 2 0 2 C0 1.34 0 0.68 0 0 Z " fill="#45C6EF" transform="translate(50,13)"/>
<path d="M0 0 C0.99 0 1.98 0 3 0 C3.66 0.66 4.32 1.32 5 2 C4.625 4.125 4.625 4.125 4 6 C2.68 5.34 1.36 4.68 0 4 C0 2.68 0 1.36 0 0 Z " fill="#91BFE9" transform="translate(25,30)"/>
<path d="M0 0 C2.475 0.495 2.475 0.495 5 1 C4.67 1.66 4.34 2.32 4 3 C3.34 3 2.68 3 2 3 C2 3.66 2 4.32 2 5 C1.34 5 0.68 5 0 5 C0 3.35 0 1.7 0 0 Z " fill="#90C8F1" transform="translate(37,52)"/>
<path d="M0 0 C0 0.33 0 0.66 0 1 C-1.65 1 -3.3 1 -5 1 C-5.66 2.32 -6.32 3.64 -7 5 C-7.66 5 -8.32 5 -9 5 C-9 4.01 -9 3.02 -9 2 C-5.5647952 -0.29013653 -4.014669 -0.17842973 0 0 Z " fill="#1C4A9B" transform="translate(193,41)"/>
<path d="M0 0 C3.68754757 0.49831724 5.60490662 1.10067643 8 4 C7.67 4.66 7.34 5.32 7 6 C6.21625 5.525625 5.4325 5.05125 4.625 4.5625 C3.11051322 3.66101977 1.5764103 2.78820515 0 2 C0 1.34 0 0.68 0 0 Z " fill="#264B91" transform="translate(275,35)"/>
<path d="M0 0 C0 0.99 0 1.98 0 3 C-2.97 3 -5.94 3 -9 3 C-5.73209435 0.82139623 -3.91954654 0 0 0 Z " fill="#AAD9EE" transform="translate(45,23)"/>
<path d="M0 0 C0.66 0.99 1.32 1.98 2 3 C-0.64 3.66 -3.28 4.32 -6 5 C-6 4.34 -6 3.68 -6 3 C-4.02 2.01 -2.04 1.02 0 0 Z " fill="#58A3CF" transform="translate(43,20)"/>
<path d="M0 0 C-3.33333333 1.66666667 -6.66666667 3.33333333 -10 5 C-8.94958421 2.13522966 -8.29875437 1.16086774 -5.5625 -0.3125 C-3 -1 -3 -1 0 0 Z " fill="#82BDD6" transform="translate(30,22)"/>
</svg>
