<?xml version="1.0" encoding="UTF-8"?>
<svg version="1.1" xmlns="http://www.w3.org/2000/svg" width="96" height="96">
<path d="M0 0 C2.03667615 1.54506466 2.86073078 2.72146156 4 5 C5.2684375 5.5878125 5.2684375 5.5878125 6.5625 6.1875 C7.366875 6.785625 8.17125 7.38375 9 8 C9.3125 11.6875 9.3125 11.6875 9 15 C9.61488281 14.84402344 10.22976562 14.68804687 10.86328125 14.52734375 C11.67152344 14.33269531 12.47976562 14.13804688 13.3125 13.9375 C14.11300781 13.74027344 14.91351563 13.54304688 15.73828125 13.33984375 C18 13 18 13 21 14 C20.67 16.64 20.34 19.28 20 22 C21.65 22 23.3 22 25 22 C26.11572266 23.63769531 26.11572266 23.63769531 27 26 C26.37255859 28.71386719 26.37255859 28.71386719 25.1484375 31.796875 C24.70886719 32.9209375 24.26929687 34.045 23.81640625 35.203125 C23.34074219 36.37359375 22.86507812 37.5440625 22.375 38.75 C21.92253906 39.905 21.47007813 41.06 21.00390625 42.25 C13.05707237 62.31174778 13.05707237 62.31174778 4.83984375 65.96484375 C3.20957645 66.63187729 1.57523729 67.28902349 -0.0625 67.9375 C-1.78041705 68.63817379 -3.49786816 69.3399911 -5.21484375 70.04296875 C-6.04097168 70.3786084 -6.86709961 70.71424805 -7.71826172 71.06005859 C-10.55055615 72.22679662 -13.34167455 73.47117479 -16.125 74.75 C-16.95515625 75.13027344 -17.7853125 75.51054688 -18.640625 75.90234375 C-20.25977565 76.6556241 -21.87415905 77.4192115 -23.484375 78.19140625 C-31.19468375 81.8071883 -31.19468375 81.8071883 -35 81 C-37.14192958 77.78710563 -37.435996 76.17837587 -37.91723633 72.41455078 C-38.0669136 71.26971222 -38.21659088 70.12487366 -38.37080383 68.94534302 C-38.52300888 67.70783295 -38.67521393 66.47032288 -38.83203125 65.1953125 C-38.99168869 63.9240451 -39.15134613 62.65277771 -39.31584167 61.34298706 C-39.65189206 58.65203416 -39.98110077 55.96033937 -40.30639648 53.26806641 C-40.72376844 49.82363018 -41.16481752 46.3826839 -41.6119585 42.94200325 C-42.03454355 39.6533537 -42.4316516 36.36173864 -42.83203125 33.0703125 C-42.99435745 31.83685089 -43.15668365 30.60338928 -43.32392883 29.33255005 C-43.45784531 28.18140717 -43.59176178 27.03026428 -43.72973633 25.84423828 C-43.85472 24.83402618 -43.97970367 23.82381409 -44.10847473 22.7829895 C-43.97559267 19.37381408 -43.01551706 17.71635144 -41 15 C-37.50068752 12.48963985 -33.69208792 10.94458457 -29.7109375 9.3359375 C-28.52242187 8.85382812 -27.33390625 8.37171875 -26.109375 7.875 C-24.86458712 7.37499057 -23.61979542 6.87499067 -22.375 6.375 C-21.12224952 5.86754856 -19.8696439 5.35973933 -18.6171875 4.8515625 C-5.48771824 -0.45730985 -5.48771824 -0.45730985 0 0 Z " fill="#6AC3F4" transform="translate(58,9)"/>
<path d="M0 0 C2.03667615 1.54506466 2.86073078 2.72146156 4 5 C4.825 5.37125 5.65 5.7425 6.5 6.125 C9 8 9 8 9.55078125 9.97265625 C9.78720343 11.97342308 9.90103665 13.98774514 10 16 C4.89557918 18.76489461 -0.2996417 20.8928763 -5.75 22.875 C-18.03719855 26.50332358 -18.03719855 26.50332358 -27.33203125 34.203125 C-28.09374149 36.46949437 -28.5808658 38.64939168 -29 41 C-29.64896236 42.67363977 -30.30580437 44.34461042 -31 46 C-31.33 46 -31.66 46 -32 46 C-32.03738281 45.37351563 -32.07476562 44.74703125 -32.11328125 44.1015625 C-32.17902344 43.28429688 -32.24476562 42.46703125 -32.3125 41.625 C-32.37050781 40.81289063 -32.42851563 40.00078125 -32.48828125 39.1640625 C-32.82990528 36.62078662 -32.82990528 36.62078662 -36 35 C-36.65234375 32.06640625 -36.65234375 32.06640625 -36.9375 28.5625 C-37.04964844 27.40878906 -37.16179688 26.25507812 -37.27734375 25.06640625 C-37 22 -37 22 -35.42871094 20.48193359 C-32.38273055 18.62335891 -29.20618398 17.42049907 -25.86328125 16.22265625 C-24.46790204 15.70430583 -23.07272555 15.18540943 -21.67773438 14.66601562 C-19.48756917 13.85872344 -17.29587578 13.0564987 -15.1003418 12.26391602 C-12.97423078 11.49322153 -10.85613307 10.70321485 -8.73828125 9.91015625 C-8.07790359 9.6777272 -7.41752594 9.44529816 -6.73713684 9.20582581 C-4.67799405 8.46682909 -4.67799405 8.46682909 -2 7 C-0.97799568 4.93304774 -0.97799568 4.93304774 -1 3 C-1.68707031 3.28875 -2.37414063 3.5775 -3.08203125 3.875 C-3.98308594 4.24625 -4.88414063 4.6175 -5.8125 5 C-6.70582031 5.37125 -7.59914062 5.7425 -8.51953125 6.125 C-11 7 -11 7 -14 7 C-14.185625 7.598125 -14.37125 8.19625 -14.5625 8.8125 C-16.70517401 12.07309089 -19.39625404 12.73552773 -23 14 C-23.99 14 -24.98 14 -26 14 C-26 13.34 -26 12.68 -26 12 C-27.010625 12.433125 -28.02125 12.86625 -29.0625 13.3125 C-29.69800781 13.58191406 -30.33351563 13.85132813 -30.98828125 14.12890625 C-32.30706378 14.69995189 -33.6175862 15.29055481 -34.91796875 15.90234375 C-39.68125 18.10625 -39.68125 18.10625 -43 17 C-39.75464865 13.20534021 -36.16209264 11.52812987 -31.6015625 9.765625 C-30.88898285 9.48273621 -30.1764032 9.19984741 -29.44223022 8.90838623 C-27.93974786 8.31511993 -26.43518437 7.7271004 -24.92871094 7.14404297 C-22.63358518 6.25333181 -20.34800005 5.34086636 -18.0625 4.42578125 C-16.59687518 3.85023396 -15.13074488 3.2759719 -13.6640625 2.703125 C-12.98574371 2.43131409 -12.30742493 2.15950317 -11.60855103 1.87945557 C-7.60211153 0.34848544 -4.286732 -0.41476814 0 0 Z " fill="#ECF5FB" transform="translate(58,9)"/>
<path d="M0 0 C-0.04492188 2.29394531 -0.04492188 2.29394531 -1 5 C-3.47946457 6.38376114 -5.63746789 7.35051355 -8.28125 8.296875 C-9.00993286 8.57597717 -9.73861572 8.85507935 -10.48937988 9.14263916 C-12.81956788 10.03079021 -15.15896438 10.89089995 -17.5 11.75 C-19.83846186 12.62926166 -22.17477295 13.5140262 -24.51062012 14.40020752 C-25.96539982 14.94978113 -27.42215896 15.49414747 -28.88098145 16.03289795 C-32.19388619 17.08253229 -32.19388619 17.08253229 -35 19 C-34.90982004 21.19050021 -34.75333792 23.378466 -34.5625 25.5625 C-34.46066406 26.76003906 -34.35882813 27.95757812 -34.25390625 29.19140625 C-34.17011719 30.11824219 -34.08632813 31.04507813 -34 32 C-33.34 32 -32.68 32 -32 32 C-31.34 34.97 -30.68 37.94 -30 41 C-29.54625 39.783125 -29.0925 38.56625 -28.625 37.3125 C-27.45547059 34.1919073 -26.25437562 31.08769384 -25 28 C-24.67 28.66 -24.34 29.32 -24 30 C-24.33 30.66 -24.66 31.32 -25 32 C-21.38654719 30.55461888 -18.3687524 29.26222393 -15.1875 27 C-9.07523966 23.16485626 -2.10763719 21.77256926 5 21 C2.09499998 23.39274943 -0.5027885 24.6366677 -4.0625 25.8125 C-8.94117012 27.66327457 -9.7528551 29.31030629 -12 34 C-14.22479184 35.2622633 -16.44259399 36.16654681 -18.84375 37.04296875 C-21.17867241 38.07930207 -22.41159031 39.0108669 -24 41 C-24.69356423 43.32548007 -25.36149212 45.65880445 -26 48 C-26.66 48.66 -27.32 49.32 -28 50 C-27.67 50.66 -27.34 51.32 -27 52 C-27.50982523 54.39795703 -28.08464493 56.70770419 -28.75 59.0625 C-28.9346582 59.73482666 -29.11931641 60.40715332 -29.30957031 61.09985352 C-30.70769999 66.12672131 -32.27224571 71.07590029 -34 76 C-34.66 75.67 -35.32 75.34 -36 75 C-36.51298523 72.69129944 -36.51298523 72.69129944 -36.88549805 69.59399414 C-37.02871994 68.43932144 -37.17194183 67.28464874 -37.31950378 66.09498596 C-37.53840019 64.20912025 -37.53840019 64.20912025 -37.76171875 62.28515625 C-37.91663284 61.00394394 -38.07154694 59.72273163 -38.2311554 58.4026947 C-38.55878276 55.68717129 -38.88000442 52.97098934 -39.1965332 50.25415039 C-39.60302534 46.76785502 -40.02309606 43.28336454 -40.44769573 39.79923344 C-40.85044307 36.48279507 -41.24331137 33.1652159 -41.63671875 29.84765625 C-41.78872238 28.59243668 -41.94072601 27.3372171 -42.09733582 26.04396057 C-42.23110123 24.88613571 -42.36486664 23.72831085 -42.50268555 22.53540039 C-42.623228 21.51249405 -42.74377045 20.48958771 -42.8679657 19.4356842 C-43 17 -43 17 -42 15 C-39.71305252 14.06124023 -37.46349167 13.2239987 -35.125 12.4375 C-34.48691406 12.21642578 -33.84882812 11.99535156 -33.19140625 11.76757812 C-30.46714906 10.82631598 -27.73435537 9.91145179 -25 9 C-25 9.66 -25 10.32 -25 11 C-23.37061226 10.40776866 -21.74658872 9.80076372 -20.125 9.1875 C-19.22007813 8.85105469 -18.31515625 8.51460937 -17.3828125 8.16796875 C-14.70574151 7.10350976 -14.70574151 7.10350976 -13 4 C-10.72265625 2.83203125 -10.72265625 2.83203125 -8.0625 1.8125 C-7.18722656 1.46832031 -6.31195313 1.12414062 -5.41015625 0.76953125 C-3 0 -3 0 0 0 Z " fill="#22A192" transform="translate(57,12)"/>
<path d="M0 0 C-0.04492188 2.29394531 -0.04492188 2.29394531 -1 5 C-3.47946457 6.38376114 -5.63746789 7.35051355 -8.28125 8.296875 C-9.00993286 8.57597717 -9.73861572 8.85507935 -10.48937988 9.14263916 C-12.81956788 10.03079021 -15.15896438 10.89089995 -17.5 11.75 C-19.83846186 12.62926166 -22.17477295 13.5140262 -24.51062012 14.40020752 C-25.96539982 14.94978113 -27.42215896 15.49414747 -28.88098145 16.03289795 C-32.19388619 17.08253229 -32.19388619 17.08253229 -35 19 C-35.07205511 20.68608966 -35.08386068 22.37500659 -35.0625 24.0625 C-35.04896484 25.44115234 -35.04896484 25.44115234 -35.03515625 26.84765625 C-35.02355469 27.55792969 -35.01195312 28.26820312 -35 29 C-35.66 29 -36.32 29 -37 29 C-36.67 31.64 -36.34 34.28 -36 37 C-36.66 37 -37.32 37 -38 37 C-37.88601335 38.62580966 -37.75844341 40.25067157 -37.625 41.875 C-37.55539063 42.77992187 -37.48578125 43.68484375 -37.4140625 44.6171875 C-37.20431868 47.17941903 -37.20431868 47.17941903 -35 49 C-34.77294922 51.61376953 -34.77294922 51.61376953 -34.8046875 54.8828125 C-34.81435547 56.63271484 -34.81435547 56.63271484 -34.82421875 58.41796875 C-34.84097656 59.64128906 -34.85773437 60.86460938 -34.875 62.125 C-34.88402344 63.35605469 -34.89304687 64.58710937 -34.90234375 65.85546875 C-34.92597452 68.90383815 -34.95891946 71.95182382 -35 75 C-35.33 75 -35.66 75 -36 75 C-36.93714206 67.47315965 -37.86772254 59.94553296 -38.78987217 52.41684151 C-39.2182452 48.92120115 -39.64889599 45.42587259 -40.0847168 41.93115234 C-40.58535805 37.91584943 -41.07615374 33.89939717 -41.56640625 29.8828125 C-41.72468399 28.62445587 -41.88296173 27.36609924 -42.04603577 26.0696106 C-42.18625656 24.90855804 -42.32647736 23.74750549 -42.47094727 22.55126953 C-42.66080956 21.01238571 -42.66080956 21.01238571 -42.85450745 19.44241333 C-43 17 -43 17 -42 15 C-39.71305252 14.06124023 -37.46349167 13.2239987 -35.125 12.4375 C-34.48691406 12.21642578 -33.84882812 11.99535156 -33.19140625 11.76757812 C-30.46714906 10.82631598 -27.73435537 9.91145179 -25 9 C-25 9.66 -25 10.32 -25 11 C-23.37061226 10.40776866 -21.74658872 9.80076372 -20.125 9.1875 C-19.22007813 8.85105469 -18.31515625 8.51460937 -17.3828125 8.16796875 C-14.70574151 7.10350976 -14.70574151 7.10350976 -13 4 C-10.72265625 2.83203125 -10.72265625 2.83203125 -8.0625 1.8125 C-7.18722656 1.46832031 -6.31195313 1.12414062 -5.41015625 0.76953125 C-3 0 -3 0 0 0 Z " fill="#2498D3" transform="translate(57,12)"/>
<path d="M0 0 C-0.6056338 7.38873239 -0.6056338 7.38873239 -2.25 9.9375 C-4.45538602 11.27648437 -6.45889061 11.65660684 -9 12 C-9 11.01 -9 10.02 -9 9 C-10.7634375 9.4640625 -10.7634375 9.4640625 -12.5625 9.9375 C-15.16558582 10.59622154 -17.57088604 11.06587147 -20.25 11.375 C-28.05724495 12.67620749 -34.94020128 14.83134815 -41 20 C-44.3125 20.75 -44.3125 20.75 -47 21 C-46.06812223 17.60819643 -45.35479211 16.24294965 -42.41015625 14.2265625 C-41.30542969 13.69804688 -40.20070313 13.16953125 -39.0625 12.625 C-38.45857422 12.33463867 -37.85464844 12.04427734 -37.23242188 11.74511719 C-31.16480871 8.91214434 -24.88765195 6.6172326 -18.57446289 4.39697266 C-15.12067323 3.18029263 -11.91490453 1.95626212 -8.6484375 0.27734375 C-5.34007656 -1.31828166 -3.49084332 -0.91426849 0 0 Z " fill="#2EE7BB" transform="translate(79,23)"/>
<path d="M0 0 C-2.69999071 2.69999071 -5.84846477 3.50646441 -9.375 4.75 C-21.8670144 8.40827033 -21.8670144 8.40827033 -31.33203125 16.203125 C-32.09374149 18.46949437 -32.5808658 20.64939168 -33 23 C-33.64896236 24.67363977 -34.30580437 26.34461042 -35 28 C-35.33 28 -35.66 28 -36 28 C-36.03738281 27.37351562 -36.07476562 26.74703125 -36.11328125 26.1015625 C-36.17902344 25.28429687 -36.24476562 24.46703125 -36.3125 23.625 C-36.39951172 22.40683594 -36.39951172 22.40683594 -36.48828125 21.1640625 C-36.82990528 18.62078662 -36.82990528 18.62078662 -40 17 C-40.51171875 13.9609375 -40.51171875 13.9609375 -40.6875 10.375 C-40.75324219 9.18648437 -40.81898437 7.99796875 -40.88671875 6.7734375 C-40.92410156 5.85820313 -40.96148437 4.94296875 -41 4 C-38 4 -38 4 -35 5 C-34.67 6.98 -34.34 8.96 -34 11 C-33.01 10.34 -32.02 9.68 -31 9 C-29.00674352 8.31343388 -27.00582116 7.64894214 -25 7 C-22.99265575 6.1845164 -20.9925529 5.35098613 -19 4.5 C-12.45493801 1.70471311 -7.20477699 -0.28819108 0 0 Z " fill="#81BADE" transform="translate(62,27)"/>
<path d="M0 0 C0.66 0 1.32 0 2 0 C2.99 6.27 3.98 12.54 5 19 C7.97 16.525 7.97 16.525 11 14 C11.125 16.375 11.125 16.375 11 19 C10.34 19.66 9.68 20.32 9 21 C9.33 21.66 9.66 22.32 10 23 C9.49017477 25.39795703 8.91535507 27.70770419 8.25 30.0625 C8.0653418 30.73482666 7.88068359 31.40715332 7.69042969 32.09985352 C6.29230001 37.12672131 4.72775429 42.07590029 3 47 C2.67 47 2.34 47 2 47 C1.98018066 46.19256348 1.96036133 45.38512695 1.93994141 44.55322266 C1.84494101 40.91014125 1.73516088 37.26765314 1.625 33.625 C1.57859375 31.71847656 1.57859375 31.71847656 1.53125 29.7734375 C1.49257813 28.56171875 1.45390625 27.35 1.4140625 26.1015625 C1.3826416 24.98088379 1.3512207 23.86020508 1.31884766 22.70556641 C1.26588797 19.85289588 1.26588797 19.85289588 -1 18 C-1.1953125 15.6171875 -1.1953125 15.6171875 -1.125 12.875 C-1.10695313 11.96492188 -1.08890625 11.05484375 -1.0703125 10.1171875 C-1.04710938 9.41851562 -1.02390625 8.71984375 -1 8 C-0.34 8 0.32 8 1 8 C0.67 5.36 0.34 2.72 0 0 Z " fill="#1B8082" transform="translate(20,41)"/>
<path d="M0 0 C0 1.65 0 3.3 0 5 C-0.99 5.33 -1.98 5.66 -3 6 C-3 4.68 -3 3.36 -3 2 C-3.68707031 2.28875 -4.37414063 2.5775 -5.08203125 2.875 C-5.98308594 3.24625 -6.88414063 3.6175 -7.8125 4 C-8.70582031 4.37125 -9.59914062 4.7425 -10.51953125 5.125 C-13 6 -13 6 -16 6 C-16.185625 6.598125 -16.37125 7.19625 -16.5625 7.8125 C-18.70517401 11.07309089 -21.39625404 11.73552773 -25 13 C-25.99 13 -26.98 13 -28 13 C-28 12.34 -28 11.68 -28 11 C-29.010625 11.433125 -30.02125 11.86625 -31.0625 12.3125 C-31.69800781 12.58191406 -32.33351563 12.85132813 -32.98828125 13.12890625 C-34.30706378 13.69995189 -35.6175862 14.29055481 -36.91796875 14.90234375 C-41.68125 17.10625 -41.68125 17.10625 -45 16 C-41.75464865 12.20534021 -38.16209264 10.52812987 -33.6015625 8.765625 C-32.88898285 8.48273621 -32.1764032 8.19984741 -31.44223022 7.90838623 C-29.93974786 7.31511993 -28.43518437 6.7271004 -26.92871094 6.14404297 C-24.63358518 5.25333181 -22.34800005 4.34086636 -20.0625 3.42578125 C-18.59687518 2.85023396 -17.13074488 2.2759719 -15.6640625 1.703125 C-14.98574371 1.43131409 -14.30742493 1.15950317 -13.60855103 0.87945557 C-9.03772435 -0.86718234 -4.58459174 -2.29229587 0 0 Z " fill="#60C3EE" transform="translate(60,10)"/>
<path d="M0 0 C0.66 1.32 1.32 2.64 2 4 C0.79670044 4.47626831 0.79670044 4.47626831 -0.4309082 4.9621582 C-3.41339758 6.14689987 -6.3930053 7.3385481 -9.37084961 8.53491211 C-10.65880376 9.05070916 -11.94786114 9.56376048 -13.23803711 10.07397461 C-15.09518382 10.808961 -16.94804526 11.55474622 -18.80078125 12.30078125 C-20.47394409 12.96847534 -20.47394409 12.96847534 -22.1809082 13.6496582 C-24.73134412 14.87131414 -26.20870844 15.85650364 -28 18 C-26.68 18 -25.36 18 -24 18 C-23.67 18.99 -23.34 19.98 -23 21 C-23.61875 21.144375 -24.2375 21.28875 -24.875 21.4375 C-27.03258322 21.93152225 -27.03258322 21.93152225 -29 23 C-29.33 20.69 -29.66 18.38 -30 16 C-31.32 16.33 -32.64 16.66 -34 17 C-33.95727539 15.20214844 -33.95727539 15.20214844 -33 13 C-30.54104428 11.71102049 -28.27131858 10.7178289 -25.68359375 9.765625 C-24.95253922 9.48273621 -24.22148468 9.19984741 -23.46827698 8.90838623 C-21.13004439 8.00746369 -18.78419893 7.12860254 -16.4375 6.25 C-14.85166434 5.64336083 -13.2663698 5.03530507 -11.68164062 4.42578125 C-7.79385066 2.93400527 -3.89909358 1.46196266 0 0 Z " fill="#B2D6EF" transform="translate(56,16)"/>
<path d="M0 0 C0 0.99 0 1.98 0 3 C-1.17175781 3.51949219 -2.34351563 4.03898437 -3.55078125 4.57421875 C-13.8219709 9.12792114 -13.8219709 9.12792114 -24.0625 13.75 C-25.32126953 14.32041016 -25.32126953 14.32041016 -26.60546875 14.90234375 C-28.23954399 15.65140597 -29.86696699 16.41510979 -31.48828125 17.19140625 C-38.65980183 20.56002557 -38.65980183 20.56002557 -43 20 C-43 19.01 -43 18.02 -43 17 C-42.4234668 16.87020752 -41.84693359 16.74041504 -41.25292969 16.60668945 C-39.02705099 16.00728454 -37.05635133 15.231572 -34.953125 14.29296875 C-33.8084375 13.7834668 -33.8084375 13.7834668 -32.640625 13.26367188 C-31.45726562 12.7309668 -31.45726562 12.7309668 -30.25 12.1875 C-29.4765625 11.84396484 -28.703125 11.50042969 -27.90625 11.14648438 C-23.47592945 9.16547695 -19.12087474 7.07592949 -14.79052734 4.88598633 C-12.46264758 3.734108 -10.09701632 2.71841804 -7.6875 1.75 C-6.86636719 1.41484375 -6.04523437 1.0796875 -5.19921875 0.734375 C-3 0 -3 0 0 0 Z " fill="#3D99DD" transform="translate(66,70)"/>
<path d="M0 0 C0 0.99 0 1.98 0 3 C0.99 3.33 1.98 3.66 3 4 C2.06800781 4.15855469 1.13601562 4.31710938 0.17578125 4.48046875 C-9.38298829 6.22984922 -18.51141785 8.56349778 -27.17578125 13.15234375 C-29 14 -29 14 -32 14 C-32 13.34 -32 12.68 -32 12 C-32.66 11.67 -33.32 11.34 -34 11 C-10.28688525 0 -10.28688525 0 0 0 Z " fill="#D6F0F6" transform="translate(64,22)"/>
<path d="M0 0 C0.33 0 0.66 0 1 0 C1.33 3.3 1.66 6.6 2 10 C1.34 10 0.68 10 0 10 C0.33 12.64 0.66 15.28 1 18 C0.34 18 -0.32 18 -1 18 C-0.88601335 19.62580966 -0.75844341 21.25067157 -0.625 22.875 C-0.55539063 23.77992187 -0.48578125 24.68484375 -0.4140625 25.6171875 C-0.20431868 28.17941903 -0.20431868 28.17941903 2 30 C2.22705078 32.61376953 2.22705078 32.61376953 2.1953125 35.8828125 C2.18886719 37.04941406 2.18242187 38.21601562 2.17578125 39.41796875 C2.15902344 40.64128906 2.14226563 41.86460938 2.125 43.125 C2.11597656 44.35605469 2.10695313 45.58710937 2.09765625 46.85546875 C2.07402548 49.90383815 2.04108054 52.95182382 2 56 C1.67 56 1.34 56 1 56 C-3.38971797 24.48684515 -3.38971797 24.48684515 -3.4375 12.8125 C-3.44716797 12.07346436 -3.45683594 11.33442871 -3.46679688 10.57299805 C-3.39701231 6.25713038 -2.62859626 3.44459815 0 0 Z " fill="#1959BB" transform="translate(20,31)"/>
<path d="M0 0 C-0.6056338 7.38873239 -0.6056338 7.38873239 -2.25 9.9375 C-4.45538602 11.27648437 -6.45889061 11.65660684 -9 12 C-9 11.01 -9 10.02 -9 9 C-9.66 8.67 -10.32 8.34 -11 8 C-11 7.34 -11 6.68 -11 6 C-13.64 6 -16.28 6 -19 6 C-13.6406981 1.33973748 -7.0658063 -2.17409424 0 0 Z " fill="#38F7C7" transform="translate(79,23)"/>
<path d="M0 0 C1.65 0 3.3 0 5 0 C6.11791992 1.63549805 6.11791992 1.63549805 7 4 C6.35668945 6.72973633 6.35668945 6.72973633 5.11328125 9.83203125 C4.66919922 10.96060547 4.22511719 12.08917969 3.76757812 13.25195312 C3.28740234 14.42693359 2.80722656 15.60191406 2.3125 16.8125 C1.85166016 17.97587891 1.39082031 19.13925781 0.91601562 20.33789062 C-1.30771518 25.92744002 -3.59346794 31.48670748 -6 37 C-8.40601606 29.78195183 -4.0939986 20.59378988 -0.91015625 13.99609375 C0.41121908 11.09814184 1.15850957 8.06542942 2 5 C2.62469505 3.64649406 3.2716331 2.30065517 4 1 C2.68 0.67 1.36 0.34 0 0 Z " fill="#9AE9FB" transform="translate(78,31)"/>
<path d="M0 0 C0 1.32 0 2.64 0 4 C-2.70619452 4.98544054 -5.41469483 5.96348408 -8.125 6.9375 C-8.88554688 7.21529297 -9.64609375 7.49308594 -10.4296875 7.77929688 C-14.61204492 9.2755713 -18.56762538 10.44064282 -23 11 C-22.72753906 9.12011719 -22.72753906 9.12011719 -22 7 C-20.40527344 5.90332031 -20.40527344 5.90332031 -18.359375 5.078125 C-17.61816406 4.77519531 -16.87695312 4.47226562 -16.11328125 4.16015625 C-14.94345703 3.70962891 -14.94345703 3.70962891 -13.75 3.25 C-12.98558594 2.93417969 -12.22117187 2.61835937 -11.43359375 2.29296875 C-7.5173735 0.73053891 -4.29204908 -0.4463731 0 0 Z " fill="#B6DCEC" transform="translate(70,32)"/>
<path d="M0 0 C2.09586708 4.19173415 0.23353352 9.67712583 -1 14 C-2.67319274 16.73257835 -4.53022766 18.95505731 -7 21 C-7.33 21 -7.66 21 -8 21 C-8.66 15.39 -9.32 9.78 -10 4 C-9.01 4 -8.02 4 -7 4 C-6.34 6.97 -5.68 9.94 -5 13 C-4.54625 11.783125 -4.0925 10.56625 -3.625 9.3125 C-2.45547059 6.1919073 -1.25437562 3.08769384 0 0 Z " fill="#46AABB" transform="translate(32,40)"/>
<path d="M0 0 C0.99 3.96 1.98 7.92 3 12 C3.2475 11.071875 3.495 10.14375 3.75 9.1875 C5.06526633 5.83357085 5.83263132 4.63167477 9 3 C9.99 3.33 10.98 3.66 12 4 C10.8553125 4.4640625 10.8553125 4.4640625 9.6875 4.9375 C5.79446399 7.9251788 5.285914 11.4108944 4 16 C3.35103764 17.67363977 2.69419563 19.34461042 2 21 C1.67 21 1.34 21 1 21 C0.96261719 20.37351562 0.92523437 19.74703125 0.88671875 19.1015625 C0.82097656 18.28429687 0.75523438 17.46703125 0.6875 16.625 C0.60048828 15.40683594 0.60048828 15.40683594 0.51171875 14.1640625 C0.17009472 11.62078662 0.17009472 11.62078662 -3 10 C-3.51171875 7.8359375 -3.51171875 7.8359375 -3.6875 5.375 C-3.75324219 4.55773438 -3.81898437 3.74046875 -3.88671875 2.8984375 C-3.92410156 2.27195313 -3.96148438 1.64546875 -4 1 C-2 0 -2 0 0 0 Z " fill="#69ACD3" transform="translate(25,34)"/>
<path d="M0 0 C-0.23413086 2.3737793 -0.23413086 2.3737793 -1 5 C-2.85766602 6.21020508 -2.85766602 6.21020508 -5.25390625 7.01953125 C-6.10791016 7.31923828 -6.96191406 7.61894531 -7.84179688 7.92773438 C-9.18854492 8.36569336 -9.18854492 8.36569336 -10.5625 8.8125 C-11.46419922 9.12380859 -12.36589844 9.43511719 -13.29492188 9.75585938 C-15.52433141 10.52258752 -17.75850709 11.26951206 -20 12 C-20.66 11.34 -21.32 10.68 -22 10 C-21.43410156 9.73445313 -20.86820313 9.46890625 -20.28515625 9.1953125 C-19.55167969 8.84210937 -18.81820312 8.48890625 -18.0625 8.125 C-17.33160156 7.77695312 -16.60070313 7.42890625 -15.84765625 7.0703125 C-13.83667541 6.1315023 -13.83667541 6.1315023 -13 4 C-10.8203125 2.9296875 -10.8203125 2.9296875 -8.125 1.875 C-7.24070312 1.52179687 -6.35640625 1.16859375 -5.4453125 0.8046875 C-3 0 -3 0 0 0 Z " fill="#29A3DA" transform="translate(57,12)"/>
<path d="M0 0 C0.66 0 1.32 0 2 0 C2.3383344 2.37438249 2.67079002 4.74934959 3 7.125 C3.09539063 7.79015625 3.19078125 8.4553125 3.2890625 9.140625 C3.83611453 13.12628981 4.10022182 16.97859938 4 21 C3.34 21.33 2.68 21.66 2 22 C-0.80045623 18.85408067 -1.35261589 16.932936 -1.1875 12.75 C-1.16042969 11.85796875 -1.13335938 10.9659375 -1.10546875 10.046875 C-1.07066406 9.37140625 -1.03585938 8.6959375 -1 8 C-0.34 8 0.32 8 1 8 C0.67 5.36 0.34 2.72 0 0 Z " fill="#0C3EA5" transform="translate(20,41)"/>
<path d="M0 0 C0.66 1.32 1.32 2.64 2 4 C-0.95342843 5.19996934 -3.91341894 6.38281104 -6.875 7.5625 C-7.71675781 7.90474609 -8.55851562 8.24699219 -9.42578125 8.59960938 C-10.23144531 8.91865234 -11.03710938 9.23769531 -11.8671875 9.56640625 C-12.98262939 10.01415405 -12.98262939 10.01415405 -14.12060547 10.47094727 C-16 11 -16 11 -18 10 C-17.67 9.34 -17.34 8.68 -17 8 C-16.01 8 -15.02 8 -14 8 C-13.67 7.01 -13.34 6.02 -13 5 C-10.05859375 3.61328125 -10.05859375 3.61328125 -6.4375 2.3125 C-4.64119141 1.65701172 -4.64119141 1.65701172 -2.80859375 0.98828125 C-1.88175781 0.66214844 -0.95492187 0.33601563 0 0 Z " fill="#BCE1F4" transform="translate(56,16)"/>
<path d="M0 0 C0.33 0.66 0.66 1.32 1 2 C-0.89332534 2.81832722 -2.78977733 3.62942268 -4.6875 4.4375 C-5.74324219 4.88996094 -6.79898438 5.34242187 -7.88671875 5.80859375 C-10.61972529 6.85447455 -13.12042337 7.53520748 -16 8 C-16 7.34 -16 6.68 -16 6 C-16.66 5.67 -17.32 5.34 -18 5 C-16.25197854 4.18325204 -14.50149811 3.37176549 -12.75 2.5625 C-11.77546875 2.11003906 -10.8009375 1.65757813 -9.796875 1.19140625 C-3.92703863 -1.30901288 -3.92703863 -1.30901288 0 0 Z " fill="#C1E0F2" transform="translate(48,28)"/>
<path d="M0 0 C-2.76818223 2.76818223 -6.079129 3.68549875 -9.6875 5 C-10.38294922 5.26039062 -11.07839844 5.52078125 -11.79492188 5.7890625 C-16.15152533 7.39990747 -20.51881935 8.77839374 -25 10 C-25 9.01 -25 8.02 -25 7 C-23.12616097 6.20558928 -21.25087114 5.41460026 -19.375 4.625 C-17.80878906 3.96371094 -17.80878906 3.96371094 -16.2109375 3.2890625 C-10.52249717 1.00538207 -6.18193426 -0.24727737 0 0 Z " fill="#66D0D7" transform="translate(62,27)"/>
<path d="M0 0 C1.97558594 1.1262207 1.97558594 1.1262207 4 3 C4.45410156 5.72729492 4.45410156 5.72729492 4.390625 8.98046875 C4.37773437 10.14384766 4.36484375 11.30722656 4.3515625 12.50585938 C4.31804688 13.72080078 4.28453125 14.93574219 4.25 16.1875 C4.23195313 17.41404297 4.21390625 18.64058594 4.1953125 19.90429688 C4.14811124 22.93697759 4.08227677 25.96810087 4 29 C3.67 29 3.34 29 3 29 C2.49491028 25.10480894 1.99682267 21.20875343 1.5 17.3125 C1.35691406 16.20970703 1.21382812 15.10691406 1.06640625 13.97070312 C0.93105469 12.90400391 0.79570312 11.83730469 0.65625 10.73828125 C0.53056641 9.75899658 0.40488281 8.77971191 0.27539062 7.77075195 C0.01567205 5.15767911 -0.05025329 2.62364032 0 0 Z " fill="#347CC6" transform="translate(18,58)"/>
<path d="M0 0 C0 0.66 0 1.32 0 2 C-3.98657296 3.81207862 -7.68471898 4.38353128 -12 5 C-12.825 5.350625 -13.65 5.70125 -14.5 6.0625 C-17.73974034 7.27740263 -20.57080601 7.1344782 -24 7 C-17.98200158 0.98200158 -8.16798198 -0.69220186 0 0 Z " fill="#1FD5A9" transform="translate(67,30)"/>
<path d="M0 0 C0.25 2.3125 0.25 2.3125 0 5 C-2.04424538 6.97610386 -3.1176825 8 -6 8 C-7.2505313 9.02714661 -7.2505313 9.02714661 -7.11352539 11.22485352 C-7.10828857 12.18319092 -7.10305176 13.14152832 -7.09765625 14.12890625 C-7.09443359 15.16337891 -7.09121094 16.19785156 -7.08789062 17.26367188 C-7.07532227 18.8965918 -7.07532227 18.8965918 -7.0625 20.5625 C-7.05798828 21.65498047 -7.05347656 22.74746094 -7.04882812 23.87304688 C-7.03699826 26.58208495 -7.02051543 29.29101599 -7 32 C-7.99 32.495 -7.99 32.495 -9 33 C-9.23417556 29.00100204 -9.37502133 25.003781 -9.5 21 C-9.56703125 19.87464844 -9.6340625 18.74929687 -9.703125 17.58984375 C-9.89685438 9.30791264 -9.89685438 9.30791264 -7.21875 5.40234375 C-1.88310185 0 -1.88310185 0 0 0 Z " fill="#116591" transform="translate(31,55)"/>
<path d="M0 0 C-1.28807882 5.53873892 -3.62195333 7.53404639 -8 11 C-9.37254588 13.14980497 -9.37254588 13.14980497 -10 15 C-11.51062978 10.46811066 -10.77700877 6.4055009 -9 2 C-6.29065252 -0.25996052 -3.36538965 -1.68269482 0 0 Z " fill="#1A8B8B" transform="translate(41,42)"/>
<path d="M0 0 C-0.33 1.65 -0.66 3.3 -1 5 C-1.33 4.34 -1.66 3.68 -2 3 C-3.010625 3.433125 -4.02125 3.86625 -5.0625 4.3125 C-5.69800781 4.58191406 -6.33351563 4.85132813 -6.98828125 5.12890625 C-8.30706378 5.69995189 -9.6175862 6.29055481 -10.91796875 6.90234375 C-15.68125 9.10625 -15.68125 9.10625 -19 8 C-14.53475604 2.31696223 -7.08103602 -0.35468517 0 0 Z " fill="#59B9E9" transform="translate(34,18)"/>
<path d="M0 0 C0 0.99 0 1.98 0 3 C-1.43429001 3.67354499 -2.87257057 4.33859701 -4.3125 5 C-5.51326172 5.556875 -5.51326172 5.556875 -6.73828125 6.125 C-9 7 -9 7 -12 7 C-9.87654283 1.40179474 -5.8147806 -0.49840977 0 0 Z " fill="#166672" transform="translate(65,41)"/>
<path d="M0 0 C0 1.32 0 2.64 0 4 C-3.61973402 5.31626692 -6.09567131 6 -10 6 C-10.33 5.01 -10.66 4.02 -11 3 C-7.14243493 0.84694043 -4.44870215 -0.39253254 0 0 Z " fill="#C7E9F1" transform="translate(70,32)"/>
<path d="M0 0 C-0.48828125 6.0546875 -0.48828125 6.0546875 -1 8 C-1.99 8.66 -2.98 9.32 -4 10 C-4 7.03 -4 4.06 -4 1 C-5.65 1.33 -7.3 1.66 -9 2 C-9 1.34 -9 0.68 -9 0 C-5.52176885 -1.15941038 -3.54104422 -0.70820884 0 0 Z " fill="#66F3D8" transform="translate(79,23)"/>
<path d="M0 0 C-0.21484375 1.890625 -0.21484375 1.890625 -1 4 C-3.06640625 5.046875 -3.06640625 5.046875 -5.5625 5.75 C-6.80193359 6.11351562 -6.80193359 6.11351562 -8.06640625 6.484375 C-9.02353516 6.73960938 -9.02353516 6.73960938 -10 7 C-9.71484375 5.109375 -9.71484375 5.109375 -9 3 C-3.10714286 0 -3.10714286 0 0 0 Z " fill="#D3ECF8" transform="translate(43,16)"/>
<path d="M0 0 C-0.99730136 2.4932534 -1.65074531 3.77467439 -3.9375 5.25 C-6 6 -6 6 -9 6 C-7.01260984 0.46369883 -5.82303895 -0.15323787 0 0 Z " fill="#24CDAA" transform="translate(41,38)"/>
<path d="M0 0 C0.33 3.96 0.66 7.92 1 12 C-0.32 11.34 -1.64 10.68 -3 10 C-3.609375 7.8359375 -3.609375 7.8359375 -3.75 5.375 C-3.80671875 4.55773438 -3.8634375 3.74046875 -3.921875 2.8984375 C-3.94765625 2.27195313 -3.9734375 1.64546875 -4 1 C-2 0 -2 0 0 0 Z " fill="#6BA2D9" transform="translate(25,34)"/>
<path d="M0 0 C-5.55079437 2.92678249 -11.00067626 5.1668733 -17 7 C-17 6.34 -17 5.68 -17 5 C-15.25197854 4.18325204 -13.50149811 3.37176549 -11.75 2.5625 C-10.77546875 2.11003906 -9.8009375 1.65757813 -8.796875 1.19140625 C-2.760181 -1.3800905 -2.760181 -1.3800905 0 0 Z " fill="#60BCF4" transform="translate(60,66)"/>
<path d="M0 0 C1.32 0 2.64 0 4 0 C4 2.31 4 4.62 4 7 C2.02 7.33 0.04 7.66 -2 8 C-1.125 1.125 -1.125 1.125 0 0 Z " fill="#3692A6" transform="translate(41,39)"/>
<path d="M0 0 C5.75 -0.125 5.75 -0.125 8 1 C8 2.65 8 4.3 8 6 C7.01 6.33 6.02 6.66 5 7 C5 5.68 5 4.36 5 3 C4.360625 2.87625 3.72125 2.7525 3.0625 2.625 C2.381875 2.41875 1.70125 2.2125 1 2 C0.67 1.34 0.34 0.68 0 0 Z " fill="#68DAF6" transform="translate(52,9)"/>
<path d="M0 0 C-3.43772727 3.43772727 -7.10960984 3.97127774 -11.875 4.125 C-12.90625 4.08375 -13.9375 4.0425 -15 4 C-10.7923604 -0.2076396 -5.6868542 -0.22747417 0 0 Z " fill="#7ADDDF" transform="translate(62,27)"/>
<path d="M0 0 C0.33 0 0.66 0 1 0 C0.58846263 4.97093824 0.20399168 9.44508386 -2 14 C-2.33 14 -2.66 14 -3 14 C-2.58846263 9.02906176 -2.20399168 4.55491614 0 0 Z " fill="#75D7F9" transform="translate(72,56)"/>
<path d="M0 0 C0.598125 0.20625 1.19625 0.4125 1.8125 0.625 C0.8225 0.955 -0.1675 1.285 -1.1875 1.625 C-1.3525 2.285 -1.5175 2.945 -1.6875 3.625 C-1.8525 4.285 -2.0175 4.945 -2.1875 5.625 C-3.1775 5.955 -4.1675 6.285 -5.1875 6.625 C-5.375 4.25 -5.375 4.25 -5.1875 1.625 C-2.1875 -0.375 -2.1875 -0.375 0 0 Z " fill="#6994BF" transform="translate(44.1875,52.375)"/>
<path d="M0 0 C0.99 0 1.98 0 3 0 C4.4783226 2.95664519 4.06032783 5.74229737 4 9 C3.01 8.67 2.02 8.34 1 8 C0.67 5.36 0.34 2.72 0 0 Z " fill="#5890CD" transform="translate(22,44)"/>
<path d="M0 0 C0.99 0.33 1.98 0.66 3 1 C3.33 1.99 3.66 2.98 4 4 C4.66 4.33 5.32 4.66 6 5 C4.35 6.32 2.7 7.64 1 9 C0.67 6.03 0.34 3.06 0 0 Z " fill="#3B79B3" transform="translate(23,52)"/>
<path d="M0 0 C1.65 1.32 3.3 2.64 5 4 C4.01 4.33 3.02 4.66 2 5 C0.33289654 6.49985609 0.33289654 6.49985609 -1 8 C-1.66 7.67 -2.32 7.34 -3 7 C-3 6.01 -3 5.02 -3 4 C-2.34 3.67 -1.68 3.34 -1 3 C-0.67 2.01 -0.34 1.02 0 0 Z " fill="#DBEFF9" transform="translate(60,12)"/>
<path d="M0 0 C0.33 0 0.66 0 1 0 C1.33 3.96 1.66 7.92 2 12 C1.01 12.495 1.01 12.495 0 13 C-1.28571429 4.57142857 -1.28571429 4.57142857 0 0 Z " fill="#0A3898" transform="translate(22,50)"/>
<path d="M0 0 C0.33 0.66 0.66 1.32 1 2 C1.99 1.67 2.98 1.34 4 1 C3.67 2.65 3.34 4.3 3 6 C2.34 6 1.68 6 1 6 C0.67 7.32 0.34 8.64 0 10 C-0.19412181 8.52168779 -0.38012131 7.04230684 -0.5625 5.5625 C-0.66691406 4.73878906 -0.77132813 3.91507812 -0.87890625 3.06640625 C-0.91886719 2.38449219 -0.95882813 1.70257813 -1 1 C-0.67 0.67 -0.34 0.34 0 0 Z " fill="#126F75" transform="translate(26,61)"/>
<path d="M0 0 C0.99 0 1.98 0 3 0 C2.67 4.29 2.34 8.58 2 13 C1.67 13 1.34 13 1 13 C0.67 8.71 0.34 4.42 0 0 Z " fill="#4A95D6" transform="translate(15,33)"/>
<path d="M0 0 C0.66 0.33 1.32 0.66 2 1 C1.3125 3.875 1.3125 3.875 0 7 C-2.625 8.375 -2.625 8.375 -5 9 C-3.50163895 5.88801935 -1.80066242 2.9465385 0 0 Z " fill="#137B7A" transform="translate(39,41)"/>
<path d="M0 0 C-7.28571429 4.57142857 -7.28571429 4.57142857 -12 4 C-8.71298741 1.21868166 -4.24676932 -2.12338466 0 0 Z " fill="#D5E9F3" transform="translate(46,30)"/>
<path d="M0 0 C0 0.66 0 1.32 0 2 C-0.99 2 -1.98 2 -3 2 C-3 2.99 -3 3.98 -3 5 C-4.65 5 -6.3 5 -8 5 C-8 4.01 -8 3.02 -8 2 C-7.38125 1.855625 -6.7625 1.71125 -6.125 1.5625 C-0.22222222 0 -0.22222222 0 0 0 Z " fill="#419CDF" transform="translate(31,85)"/>
<path d="M0 0 C0.33 0.99 0.66 1.98 1 3 C-2.465 4.485 -2.465 4.485 -6 6 C-5.8125 4.125 -5.8125 4.125 -5 2 C-2.4375 0.75 -2.4375 0.75 0 0 Z " fill="#A6CFED" transform="translate(28,27)"/>
<path d="M0 0 C-0.33 1.65 -0.66 3.3 -1 5 C-1.99 5 -2.98 5 -4 5 C-4 4.01 -4 3.02 -4 2 C-4.66 1.67 -5.32 1.34 -6 1 C-3 0 -3 0 0 0 Z " fill="#30BFE8" transform="translate(57,12)"/>
<path d="M0 0 C0 0.99 0 1.98 0 3 C-3.28976808 4.09658936 -4.71303767 3.79953138 -8 3 C-7 1 -7 1 -5.125 0.375 C-3 0 -3 0 0 0 Z " fill="#48ADE9" transform="translate(66,70)"/>
<path d="M0 0 C3 0 3 0 6 1 C6 1.99 6 2.98 6 4 C4.68 3.67 3.36 3.34 2 3 C1.67 3.66 1.34 4.32 1 5 C0.67 3.35 0.34 1.7 0 0 Z " fill="#8EBDE8" transform="translate(21,31)"/>
<path d="M0 0 C0.33 0 0.66 0 1 0 C1 2.31 1 4.62 1 7 C-0.32 7.33 -1.64 7.66 -3 8 C-1.125 1.125 -1.125 1.125 0 0 Z " fill="#5094C1" transform="translate(29,49)"/>
<path d="M0 0 C0.66 0 1.32 0 2 0 C1.67 2.97 1.34 5.94 1 9 C0.67 9 0.34 9 0 9 C-0.87890625 2.84765625 -0.87890625 2.84765625 -1 1 C-0.67 0.67 -0.34 0.34 0 0 Z " fill="#11606C" transform="translate(24,73)"/>
<path d="M0 0 C0 0.99 0 1.98 0 3 C-1.98 3.99 -3.96 4.98 -6 6 C-6 4.68 -6 3.36 -6 2 C-4.02 1.34 -2.04 0.68 0 0 Z " fill="#1CA993" transform="translate(38,42)"/>
</svg>
